<?xml version="1.0" encoding="utf-8" ?>
<svg baseProfile="full" height="500px" version="1.1" width="359px" xmlns="http://www.w3.org/2000/svg" xmlns:ev="http://www.w3.org/2001/xml-events" xmlns:xlink="http://www.w3.org/1999/xlink"><defs /><polyline fill="none" points="160,499 161,496 163,495 167,490 172,494 170,497 170,499 173,495 175,496 174,497 175,496 176,497 175,499 176,498 175,495 173,495 172,493 168,490 166,490 165,492 161,495" stroke="black" stroke-width="2" /><polyline fill="none" points="111,495 120,493 124,496 135,498 138,496 138,493 133,490 124,489 113,492 129,489 138,494 136,497 127,497 121,493" stroke="black" stroke-width="2" /><polyline fill="none" points="309,491 309,494 311,494 313,492 316,494 319,493 319,490 318,489 316,489 316,491 317,489 319,491 319,492 317,494 313,492 313,488 311,488" stroke="black" stroke-width="2" /><polyline fill="none" points="299,487 300,487" stroke="black" stroke-width="2" /><polyline fill="none" points="205,487 206,489 204,491 202,491 200,487 199,487 200,488 199,490 196,489 198,490 196,492 196,496 194,499 196,497 196,493 199,490 201,491 199,493 199,499 200,492 201,491 206,492 204,491 206,489" stroke="black" stroke-width="2" /><polyline fill="none" points="261,496 263,499 261,494 265,491 269,493 274,490 280,491 278,489 279,490 278,491 273,490 267,492 266,490 269,488 276,488 268,489 266,486 267,489 261,493" stroke="black" stroke-width="2" /><polyline fill="none" points="229,485 229,488 230,489 230,490 229,491 231,493 232,492 234,492 234,491 236,489 237,489 236,489 235,488 235,487 236,486 235,486 234,485" stroke="black" stroke-width="2" /><polyline fill="none" points="178,485 179,488 177,494 179,489 187,493 186,492 189,489 193,491 188,496 180,495 178,497 180,495 188,496 193,493 193,490 189,489 185,492 182,491 178,487 179,486" stroke="black" stroke-width="2" /><polyline fill="none" points="43,498 15,498 14,496 17,490 22,485 17,489 12,498 0,497" stroke="black" stroke-width="2" /><polyline fill="none" points="232,483" stroke="black" stroke-width="2" /><polyline fill="none" points="12,486 13,486 15,483 16,484 20,484 21,483 21,482 19,484 17,484 14,481 12,481 13,481 15,483" stroke="black" stroke-width="2" /><polyline fill="none" points="326,481 327,482 327,483 331,483 331,482 332,481 334,481 332,481 331,480 329,480 328,481" stroke="black" stroke-width="2" /><polyline fill="none" points="55,484 55,487 60,487 62,486 66,491 68,492 70,491 69,490 69,488 70,487 69,486 70,484 68,482 68,481 64,480 60,483" stroke="black" stroke-width="2" /><polyline fill="none" points="250,479 249,480 250,479 255,488 255,491 257,493 257,495 258,496 258,498 256,499 258,498 259,499 257,495 257,493 255,491 256,487 255,488 254,487 254,485 252,483 251,479" stroke="black" stroke-width="2" /><polyline fill="none" points="92,479 87,483 84,489 86,487 86,485 88,483 88,482 89,481 91,481 92,482 91,484 91,488 95,492 95,491 91,487 91,484 92,483 92,481 91,480" stroke="black" stroke-width="2" /><polyline fill="none" points="313,478 310,478 310,480 312,481 311,482 308,481 306,483 304,481 299,485 301,484 302,485 302,488 303,486 305,488 306,485 303,486 301,484 303,482 305,483 309,482 310,483 308,485 313,480" stroke="black" stroke-width="2" /><polyline fill="none" points="254,479 254,480 255,481 255,482 256,483 256,484 257,484 258,485 258,486 264,486 259,486 255,482 255,478" stroke="black" stroke-width="2" /><polyline fill="none" points="149,480 147,480 145,478 145,477 143,477 140,480 138,480 137,481 134,481 133,484 134,484 135,485 136,485 137,484 139,486 142,486 144,484 148,484 149,483" stroke="black" stroke-width="2" /><polyline fill="none" points="40,483 44,477 49,478 43,477 40,484 41,485 43,484 44,485 45,484 47,484 48,485 50,484 49,483 49,480 49,484 48,485 47,484 43,484 42,485" stroke="black" stroke-width="2" /><polyline fill="none" points="235,476 236,477 233,479 236,483 234,479 236,477 238,478 242,487 242,491 244,494 245,499 242,487 237,477 238,476 237,477" stroke="black" stroke-width="2" /><polyline fill="none" points="318,475 317,476 317,479 316,480 316,481 317,482 317,483 318,483 316,481 317,480 318,480 320,482 320,483 320,479 321,478 321,475" stroke="black" stroke-width="2" /><polyline fill="none" points="121,475 120,477 122,480 124,480 126,482 127,482 126,482 125,480 123,480 121,478 121,476 122,475 127,475 129,478 129,482 129,479 130,478 128,476 128,475" stroke="black" stroke-width="2" /><polyline fill="none" points="294,474 293,475 293,477 294,477 295,478 296,478 299,481 298,480 299,479 300,479 300,478 301,477 302,477 302,476 301,477 299,475 298,475 296,473 295,474" stroke="black" stroke-width="2" /><polyline fill="none" points="177,472 178,471 179,471 178,471 177,472 177,473 178,474 179,473 181,473 181,472 180,473 178,473" stroke="black" stroke-width="2" /><polyline fill="none" points="163,471 163,472 164,473 164,475 165,476 166,476 167,475 168,475 168,474 166,476 164,474 164,473 163,472" stroke="black" stroke-width="2" /><polyline fill="none" points="32,470 30,470 24,476 20,475 17,476 16,480 17,478 20,480 25,479 20,480 17,477 18,476 27,475 31,470 32,473 30,476 32,474" stroke="black" stroke-width="2" /><polyline fill="none" points="298,472 300,472 301,473 302,473 303,474 305,474 306,475 305,474 306,473 307,473 307,472 305,474 303,474 302,473 301,473 300,472 300,471 303,469 304,469 305,470 307,470 305,470 304,469 303,469 302,470 300,470" stroke="black" stroke-width="2" /><polyline fill="none" points="76,481 82,488 76,482 88,472 96,479 100,477 99,471 104,469 108,476 102,477 114,487 105,497 99,493 89,494 89,489 90,495 98,493 105,497 114,488 107,477 108,470 100,468 95,473 98,472 99,477 87,472" stroke="black" stroke-width="2" /><polyline fill="none" points="184,467 184,469 185,470 185,471 186,471 184,469" stroke="black" stroke-width="2" /><polyline fill="none" points="206,465 207,466 207,467 208,467 209,468 214,468 215,467 216,468 215,467 215,465 213,465 212,466 213,465 214,465 215,466 213,468 210,468 209,467 208,467" stroke="black" stroke-width="2" /><polyline fill="none" points="356,464 355,464 354,463 350,463 349,464 348,464 346,466 347,467 347,469 348,470 349,469 351,469 352,468 353,468 354,467 354,465 355,464" stroke="black" stroke-width="2" /><polyline fill="none" points="285,456 287,470 284,472 282,470 284,462 282,470 275,475 282,470 283,474 285,471 288,473 284,476 269,478 269,476 273,476 264,479 284,476 288,473" stroke="black" stroke-width="2" /><polyline fill="none" points="176,455 173,459 174,467 181,467 184,462 188,469 185,462 176,468 173,459 177,455 188,454 192,461 190,465 192,469 189,471 191,471 192,460 189,454" stroke="black" stroke-width="2" /><polyline fill="none" points="211,453 211,455 208,457 208,464 211,464 213,461 212,460 212,455 211,454" stroke="black" stroke-width="2" /><polyline fill="none" points="254,452 254,453 254,452 256,451 258,453 259,452 268,452 269,453 276,453 269,453 268,452 258,452 257,451 255,451" stroke="black" stroke-width="2" /><polyline fill="none" points="126,450 76,451 70,464 59,456 67,456 60,454 67,466 53,466 63,473 70,468 70,474 55,476 45,471 55,476 70,475 71,469 77,468 70,468 69,460 77,451" stroke="black" stroke-width="2" /><polyline fill="none" points="132,448 131,449 131,454 132,455 133,454 137,454 132,454 131,453 131,450 133,448 134,448 135,449 133,451 134,451 135,452 134,451 134,450 135,449 134,448" stroke="black" stroke-width="2" /><polyline fill="none" points="224,445 228,464 233,471 232,474 235,474 232,473 234,471 241,476 249,499 241,475 233,471 229,466" stroke="black" stroke-width="2" /><polyline fill="none" points="235,444 238,446 241,446 243,449 242,453 243,450 242,446 239,446 236,444 234,445 235,452 239,456 241,455 239,456 235,451 235,448 234,447" stroke="black" stroke-width="2" /><polyline fill="none" points="307,441 309,441" stroke="black" stroke-width="2" /><polyline fill="none" points="126,441 127,444 128,444 126,443 127,441 132,443 128,447 126,446 124,447 126,446 129,447 132,443 138,448 138,451 139,451 138,447 135,444 133,444 129,441" stroke="black" stroke-width="2" /><polyline fill="none" points="184,441 183,440 182,440 177,445 177,446 180,446 181,447 182,446 184,446 184,444 183,443 182,443 184,445 181,447 180,446 178,446 177,445 178,444 179,444 182,440 183,441" stroke="black" stroke-width="2" /><polyline fill="none" points="109,467 162,467 187,481 200,457 216,471 223,499 216,471 201,462 205,442 198,474 187,481 161,466 153,438 140,453 155,448 157,457 137,459 158,458 158,471" stroke="black" stroke-width="2" /><polyline fill="none" points="358,440 350,437 340,446 296,452 325,450 341,446 346,441 343,457 348,461 343,456 346,450 348,453 352,450 353,453 348,439 352,437" stroke="black" stroke-width="2" /><polyline fill="none" points="94,443 97,443 98,442 99,443 102,443 106,438 108,439 112,439 109,439 107,437 102,440 96,437 98,439 101,439 103,441 101,443 99,442" stroke="black" stroke-width="2" /><polyline fill="none" points="34,442 50,447 53,457 51,445 58,447 55,453 58,448 60,452 68,449 71,455 76,449 66,449 66,445 71,447 65,445 60,449 57,446 63,446 60,441 58,445 55,440 46,442 42,437 45,442 57,446 41,446 35,442 39,442 37,438" stroke="black" stroke-width="2" /><polyline fill="none" points="27,436 26,436 27,437 25,439 24,439 24,441 23,442 24,443 27,443 28,442 27,442 26,443 24,443 23,442 24,441 24,440 27,437" stroke="black" stroke-width="2" /><polyline fill="none" points="69,442 73,437 80,439 77,445 73,443 79,449 82,446 89,449 93,446 122,447 80,447 79,443 91,443 93,436 90,443 82,443 85,440 82,438 90,439 78,439 77,435" stroke="black" stroke-width="2" /><polyline fill="none" points="231,435 233,437 240,439 236,437 238,434 243,434 246,431 248,433 250,432 248,433 246,431 244,432 243,430 240,431 237,430 238,431 242,430 244,432 242,434 238,434 235,437" stroke="black" stroke-width="2" /><polyline fill="none" points="21,429 21,432 22,433 22,434 23,435 23,437 23,435 22,434 22,432 21,431" stroke="black" stroke-width="2" /><polyline fill="none" points="250,428 251,428 254,430 256,430 258,432 259,432 261,429 261,428 260,429 260,431 259,432 258,432 256,430 254,430 252,428" stroke="black" stroke-width="2" /><polyline fill="none" points="300,427 298,429 298,430 296,432 295,432 295,433 296,432 297,432 298,431 298,430 300,428" stroke="black" stroke-width="2" /><polyline fill="none" points="328,426 326,426 326,429 327,430 328,429" stroke="black" stroke-width="2" /><polyline fill="none" points="224,426 224,430 225,431 225,436 224,437 224,441 223,442 220,442 224,442 224,437 225,436 225,431 224,430" stroke="black" stroke-width="2" /><polyline fill="none" points="118,427 116,425 115,426 113,426 111,428 111,432 113,432 115,430 118,430" stroke="black" stroke-width="2" /><polyline fill="none" points="86,428 86,432 90,434 93,434 96,431 98,432 101,431 104,434 107,432 107,425 100,425 100,430 101,431 100,432 97,431 97,428 94,424 91,424 89,426 87,426" stroke="black" stroke-width="2" /><polyline fill="none" points="313,437 283,431 282,445 259,447 265,433 284,440 264,423 254,448 279,443 265,470 291,434 300,440 288,446 288,477 258,480 281,461 261,478 244,474 253,499 244,475 290,486 294,448 306,444 296,443" stroke="black" stroke-width="2" /><polyline fill="none" points="358,425 341,425 351,431 346,436 337,427 346,421 318,426 335,422 343,433 314,433 317,423 337,418 266,427 315,425 313,435 342,433 329,440 337,442 298,449 338,442" stroke="black" stroke-width="2" /><polyline fill="none" points="162,417 162,423 170,434 168,438 165,434 169,439 170,434 187,439 196,437 187,439 171,434 164,426" stroke="black" stroke-width="2" /><polyline fill="none" points="226,413 222,415 222,424 221,425 222,435 220,440 222,436 221,425 223,423 224,424 226,422 226,418 227,417" stroke="black" stroke-width="2" /><polyline fill="none" points="50,414 35,415 20,424 18,432 21,439 17,442 16,447 21,448 16,446 22,439 18,432 21,424 35,415 48,413 50,415 46,418 51,416" stroke="black" stroke-width="2" /><polyline fill="none" points="322,414 324,414 328,412 332,417 334,416 338,416 337,416 336,414 335,415 334,413 335,415 333,417 329,412 327,412 326,413 324,413" stroke="black" stroke-width="2" /><polyline fill="none" points="304,411 304,412 303,413 304,412 306,414 306,415 306,414 305,413 305,412" stroke="black" stroke-width="2" /><polyline fill="none" points="108,410 136,414 158,430 114,439 144,434 144,438 133,440 141,448 137,438 144,439 152,432 155,438 153,434 158,432 157,443 158,429 148,419" stroke="black" stroke-width="2" /><polyline fill="none" points="164,408 167,409 168,413 175,420 184,425 175,420 170,415 167,408 163,409 163,412 174,426 180,430 163,412" stroke="black" stroke-width="2" /><polyline fill="none" points="55,408 54,409 55,417 58,420 66,422 59,420 55,416 54,410 56,408 58,408 59,409 57,411 57,414 62,418 57,413 59,411 58,410 59,409 62,410 59,408" stroke="black" stroke-width="2" /><polyline fill="none" points="308,412 308,413 309,412 313,412 314,413 316,412 317,414 319,415 319,413 321,412 319,411 316,411 313,408 314,406 313,409 314,409 316,411 315,412" stroke="black" stroke-width="2" /><polyline fill="none" points="106,409 103,405 92,409 81,407 92,409 102,406 106,410 104,413 99,410 79,414 68,409 72,406 68,408 72,415 63,415 72,418 73,415 76,419 79,416 73,413 99,410 105,415" stroke="black" stroke-width="2" /><polyline fill="none" points="297,403 298,406 297,407 296,407 296,408 295,409 294,409 293,410 292,409 293,410 294,409 295,409 296,410 296,412 296,408 298,406 299,407 298,406" stroke="black" stroke-width="2" /><polyline fill="none" points="46,392 46,393 53,393 54,394 54,395 49,399 49,404 48,405 49,409 49,407 48,406 49,404 49,400 55,395 54,394 55,393 47,393" stroke="black" stroke-width="2" /><polyline fill="none" points="314,391 307,395 298,394 297,396 301,398 306,397 301,398 298,396 299,395 308,394 310,395 307,401 308,403 307,407 305,409 307,407 308,403 307,401 310,397 310,394" stroke="black" stroke-width="2" /><polyline fill="none" points="47,397 43,391 40,397 29,402 24,409 11,411 22,410 27,406 29,408 25,412 0,414 24,413 44,398 29,408 27,405 42,394" stroke="black" stroke-width="2" /><polyline fill="none" points="308,384 310,384 312,386 312,388 311,389 309,387 309,388 310,389 310,390 311,389 312,389 312,385 311,385 310,384" stroke="black" stroke-width="2" /><polyline fill="none" points="303,384 302,387 303,388 303,391 304,391 305,392 307,390 308,390 307,389 305,391 304,391 303,390 303,388 304,387 306,387 303,387 302,386 304,384" stroke="black" stroke-width="2" /><polyline fill="none" points="295,384 295,385 296,386 296,387 297,387 298,386 299,386 299,383 296,383" stroke="black" stroke-width="2" /><polyline fill="none" points="135,382 136,383 135,384 135,389 137,391 137,392 138,392 135,389 135,385 136,384 136,383" stroke="black" stroke-width="2" /><polyline fill="none" points="132,381 131,387 129,390 127,389 127,385 129,383 127,385 126,384 116,396 124,387 127,390 130,390 131,391 130,388" stroke="black" stroke-width="2" /><polyline fill="none" points="318,379 336,390 333,392 326,389 321,383 326,389 358,407 334,392 336,390 358,404" stroke="black" stroke-width="2" /><polyline fill="none" points="148,378 145,391 145,407 143,411 146,415 155,416 159,424 154,410 155,388 154,384" stroke="black" stroke-width="2" /><polyline fill="none" points="48,378 49,379 53,378 58,383 58,386 56,388 52,386 50,389 46,385 44,385 49,388 50,390 53,386 56,388 55,390 56,390 59,386 58,382 54,378 50,379" stroke="black" stroke-width="2" /><polyline fill="none" points="310,377 310,378 308,380 305,380 306,381 306,384 306,382 309,379 311,381 310,382 311,381 312,382 309,379 310,378" stroke="black" stroke-width="2" /><polyline fill="none" points="82,376 83,377 84,377 86,379 89,380 91,382 92,382 93,383 95,383 94,383 93,382 90,381 88,379 87,379 86,378 85,378" stroke="black" stroke-width="2" /><polyline fill="none" points="157,378 155,382 158,378 160,381 158,403 165,402 186,421 193,421 205,413 206,409 199,418 187,421 167,403 159,403 159,383 165,378 163,375 160,377 164,378 162,381" stroke="black" stroke-width="2" /><polyline fill="none" points="129,375 129,376 126,379 126,380 123,383 123,384 121,386 126,381 126,380 129,377" stroke="black" stroke-width="2" /><polyline fill="none" points="117,373 113,378 101,385 90,386 87,385 82,380 87,385 96,386 108,382 115,377" stroke="black" stroke-width="2" /><polyline fill="none" points="37,385 35,379 23,382 30,375 19,384 34,379 33,385 19,391 8,389 17,386 15,377 25,371 10,380 8,376 15,378 13,384 6,379 9,383 3,384 10,385 0,389 8,389 3,391 7,393 35,384 28,399" stroke="black" stroke-width="2" /><polyline fill="none" points="297,377 302,382 303,380 301,381 297,377 300,375 302,378 305,377 301,376 303,374 315,375 313,380 315,378 314,374 310,375 307,371 301,370 301,372 306,371 309,374 302,374" stroke="black" stroke-width="2" /><polyline fill="none" points="150,372 169,371 163,395 166,390 167,401 165,388 169,371 171,380 185,390 195,391 204,385 195,391 185,390 170,378 172,375 183,382 168,369" stroke="black" stroke-width="2" /><polyline fill="none" points="148,369 148,371 147,372 148,373 148,374 149,375 150,375 151,376 152,376 154,378 154,379 154,377 153,376 152,376 151,375 150,375 147,372 148,371" stroke="black" stroke-width="2" /><polyline fill="none" points="142,369 144,372 144,381 140,387 141,405 139,406 132,403 130,399 133,390 130,402 135,405 141,405 140,387 144,382 144,372" stroke="black" stroke-width="2" /><polyline fill="none" points="146,366 148,366 150,368 150,369 150,367 149,367 148,366" stroke="black" stroke-width="2" /><polyline fill="none" points="136,366 135,367 133,367 133,369 132,370 132,374 135,374 135,371 136,370" stroke="black" stroke-width="2" /><polyline fill="none" points="35,363 36,363 38,366 40,366 41,367 41,368 42,369 42,370 41,371 43,369 45,369 46,370 45,369 45,368 46,367 44,369 42,369 41,368 41,366 39,366 36,363" stroke="black" stroke-width="2" /><polyline fill="none" points="132,360 113,393 103,402 92,405 90,403 92,401 94,403 93,401 98,399 94,394 90,398 92,405 104,402 113,394" stroke="black" stroke-width="2" /><polyline fill="none" points="79,361 80,361 84,365 89,367 92,367 97,370 98,369 100,370 102,370 103,369 101,369 100,370 99,369 96,369 95,368 85,365 80,360" stroke="black" stroke-width="2" /><polyline fill="none" points="170,359 176,365 181,367 186,365 187,363 181,367 177,365 170,359 169,360 169,363 172,367 172,370 177,376 173,371 172,366 169,362" stroke="black" stroke-width="2" /><polyline fill="none" points="121,359 102,373 96,373 82,368 79,363 79,366 81,368 96,373 102,373 112,367" stroke="black" stroke-width="2" /><polyline fill="none" points="292,358 292,360 294,362 294,363 296,365 296,366 297,366 296,365 296,364 294,362 294,361 292,359" stroke="black" stroke-width="2" /><polyline fill="none" points="240,355 231,355 226,370 242,369 231,378 233,372 228,375 229,379 238,376 240,395 227,387 235,379 226,385 239,398 234,410 227,408 232,402 226,405 225,400 225,409 224,387 223,408 233,412 240,396" stroke="black" stroke-width="2" /><polyline fill="none" points="300,354 296,356 295,358 294,357 295,359 297,356 301,359 298,362 300,364 299,368 295,371 288,369 290,369 292,371 296,371 299,369 299,366 302,365 299,363 301,360" stroke="black" stroke-width="2" /><polyline fill="none" points="224,354 222,383 217,396 220,406 218,395 222,383" stroke="black" stroke-width="2" /><polyline fill="none" points="28,354 29,353 28,355 30,357 28,358 31,359 30,358 31,356 34,356 37,353 41,357 40,358 33,358 40,358 42,356 38,353 35,354 33,356 30,356" stroke="black" stroke-width="2" /><polyline fill="none" points="293,355 299,351 303,352 307,355 306,357 308,355 310,357 308,361 310,358 312,359 311,363 313,359 309,356 312,353 314,354 313,356 316,352 328,354 316,352 308,355 298,351" stroke="black" stroke-width="2" /><polyline fill="none" points="150,353 150,364 166,364 164,352 159,357 159,360 160,356 163,353 165,354 166,363 164,365 161,365 159,362 151,364 149,362 151,353 155,353 157,357 155,359 156,361 157,356 155,352 152,351" stroke="black" stroke-width="2" /><polyline fill="none" points="6,349 6,352 7,353 5,355 6,355 6,354 7,353 6,352" stroke="black" stroke-width="2" /><polyline fill="none" points="0,349 8,346 12,351 9,357 12,358 13,355 18,360 8,365 8,361 15,359 9,361 7,357 0,356 8,360 6,362 0,359 7,363 0,365 9,365 18,361 17,357 11,353 9,346" stroke="black" stroke-width="2" /><polyline fill="none" points="262,344 259,346 250,346 258,346 260,348 260,349 261,349 261,348 259,346" stroke="black" stroke-width="2" /><polyline fill="none" points="325,342 328,342 329,341 329,340 330,339 325,339 325,340 326,339 328,339 329,340 327,342" stroke="black" stroke-width="2" /><polyline fill="none" points="249,341 253,339 251,339 249,341 252,344 253,343 258,343 258,342 260,340 259,339 255,339 258,339 259,340 259,341 257,343 251,343" stroke="black" stroke-width="2" /><polyline fill="none" points="310,339 310,342 311,343 316,342 312,343 310,341 312,338 315,340 316,339 320,339 321,340 319,343 320,345 321,345 320,344 321,338 320,339 313,339 312,338" stroke="black" stroke-width="2" /><polyline fill="none" points="294,341 295,342 295,343 298,343 299,342 302,342 303,343 304,342 305,343 306,342 306,339 305,338 298,338 297,339 295,339 295,340" stroke="black" stroke-width="2" /><polyline fill="none" points="276,344 279,339 281,347 289,346 291,350 285,348 292,351 298,348 308,351 307,344 307,350 302,348 293,350 296,346 304,346 292,348 290,339 282,340 278,338" stroke="black" stroke-width="2" /><polyline fill="none" points="243,338 242,339 244,339 246,341 244,343 243,342 242,342 243,342 244,343 246,341 245,340 245,339 244,339" stroke="black" stroke-width="2" /><polyline fill="none" points="142,334 124,360 112,373 102,378 95,378 102,378 113,373 127,357" stroke="black" stroke-width="2" /><polyline fill="none" points="272,333 266,358 288,359 248,368 278,366 279,416 285,372 288,418 272,415 278,396 259,424 228,433 238,442 232,430 270,425 272,411 282,425 295,423 287,411 325,418 285,408 281,353 291,353" stroke="black" stroke-width="2" /><polyline fill="none" points="191,333 186,343 179,350 172,353 171,355 177,359 186,361 178,359 171,354 180,350 186,344" stroke="black" stroke-width="2" /><polyline fill="none" points="31,335 32,336 33,336 34,337 34,338 39,338 40,339 39,340 40,341 40,339 41,338 42,338 43,339 45,339 43,339 42,338 42,334 41,333 35,333 32,336" stroke="black" stroke-width="2" /><polyline fill="none" points="142,331 141,331 129,346 125,354 122,357 128,350 131,344 138,336 139,333" stroke="black" stroke-width="2" /><polyline fill="none" points="162,327 163,328 160,331 159,331 159,338 155,343 155,345 157,345 158,346 161,345 161,343 162,342 161,341 161,338 162,337 162,334 163,333 161,330 163,328" stroke="black" stroke-width="2" /><polyline fill="none" points="144,319 142,321 141,321 143,321 144,322 143,321 144,320" stroke="black" stroke-width="2" /><polyline fill="none" points="292,325 297,319 301,317 307,317 328,332 307,317 300,317 298,319 295,318 295,321" stroke="black" stroke-width="2" /><polyline fill="none" points="21,316 24,318 26,324 29,321 31,325 34,324 33,322 35,319 37,323 40,324 41,321 52,316 55,317 52,320 55,317 59,320 59,318 51,316 40,322 35,319 32,325 30,321 26,323 24,317" stroke="black" stroke-width="2" /><polyline fill="none" points="143,315 142,315 136,322 131,326 128,327 124,331 119,331 119,332 120,331 124,331 130,326 132,326 137,322" stroke="black" stroke-width="2" /><polyline fill="none" points="320,312 320,313 321,313 322,312 326,316 326,320 323,323 322,322 322,321 322,322 323,323 322,324 322,325 326,321 326,315 323,312" stroke="black" stroke-width="2" /><polyline fill="none" points="146,312 149,321 118,347 105,342 98,330 107,344 118,347 144,329 139,382 145,337 148,339 143,326 151,321" stroke="black" stroke-width="2" /><polyline fill="none" points="275,309 278,309 279,310 279,311 280,310 279,310 278,309 277,309 276,308" stroke="black" stroke-width="2" /><polyline fill="none" points="209,305 210,306 210,305" stroke="black" stroke-width="2" /><polyline fill="none" points="203,305 197,313 198,337 215,396 198,337 198,319" stroke="black" stroke-width="2" /><polyline fill="none" points="131,308 132,309 133,309 134,308 135,309 135,310 138,310 142,307 143,307 143,305 143,306 141,308 140,308 137,310 136,310 134,308 134,306 133,305 133,306 134,307 132,309" stroke="black" stroke-width="2" /><polyline fill="none" points="183,303 184,304 181,303 177,308 175,321 172,326 174,328 168,334 169,335 168,339 169,335 171,333 174,333 171,332 174,329 173,325 177,309" stroke="black" stroke-width="2" /><polyline fill="none" points="201,299 208,308 203,340 216,391 213,378 219,357 215,376 211,375 203,319 208,309 218,308 227,333 226,354 220,309 209,309" stroke="black" stroke-width="2" /><polyline fill="none" points="161,297 154,319 156,335 146,347 148,349 145,356 145,369 147,345 156,337 154,319" stroke="black" stroke-width="2" /><polyline fill="none" points="136,313 133,314 130,310 129,312 125,309 129,305 129,297 129,305 125,309 115,299 126,311 130,311 133,314 129,318 123,318 114,311 111,312 113,311 122,318 130,318" stroke="black" stroke-width="2" /><polyline fill="none" points="163,296 161,313 160,314 159,313 161,325 163,324 163,315 163,323 161,325 160,324 160,314 162,308" stroke="black" stroke-width="2" /><polyline fill="none" points="357,295 356,295 355,296 351,296 351,299 352,300 353,299 355,299 355,298 356,297 355,296 356,295" stroke="black" stroke-width="2" /><polyline fill="none" points="316,295 306,302 307,306 310,308 311,316 309,312 312,305 312,314 323,319 322,315 320,315 323,317 322,319 317,318 312,313 312,309 318,301 328,299 325,300 324,297 313,306 311,304 322,296" stroke="black" stroke-width="2" /><polyline fill="none" points="199,295 200,297 204,297 205,296 210,297 211,296 213,298 211,300 209,300 208,299 208,300 212,300 212,299 214,297 212,297 211,295 210,297 208,297 207,296 201,297" stroke="black" stroke-width="2" /><polyline fill="none" points="97,295 96,295 95,296 94,295 94,296 89,301 88,301 87,300 86,300 87,301 89,301 90,300 91,300 95,296 96,296" stroke="black" stroke-width="2" /><polyline fill="none" points="61,295 58,327 23,330 22,361 15,370 8,368 21,371 21,363 39,379 33,398 39,380 58,372 43,372 45,378 39,379 23,367 22,332 56,330 62,321" stroke="black" stroke-width="2" /><polyline fill="none" points="258,294 259,294 257,295 258,298 254,302 250,301 250,304 254,305 256,303 258,305 257,306 260,309 262,315 265,311 262,307 260,301 264,296 262,298 260,298 257,296" stroke="black" stroke-width="2" /><polyline fill="none" points="99,294 99,296 94,301 93,301 86,307 84,306 84,305 86,303 84,304 84,307 87,307 90,304 95,301 99,297" stroke="black" stroke-width="2" /><polyline fill="none" points="198,293" stroke="black" stroke-width="2" /><polyline fill="none" points="245,305 262,330 273,316 266,335 242,336 330,335 329,347 311,350 329,347 330,367 303,362 330,368 333,336 276,334 292,292 275,316 279,302 268,295 268,309 264,299 263,327" stroke="black" stroke-width="2" /><polyline fill="none" points="179,295 181,293 182,293 183,294 186,294 185,293 184,294 183,294 181,292 179,295 181,297 186,297 181,297" stroke="black" stroke-width="2" /><polyline fill="none" points="185,289 186,289" stroke="black" stroke-width="2" /><polyline fill="none" points="42,289 42,293 43,294 43,297 43,294 42,293" stroke="black" stroke-width="2" /><polyline fill="none" points="169,288 166,294 166,299 165,300 165,312 167,317 165,320 167,318 165,312 165,300 166,299 166,294 169,290" stroke="black" stroke-width="2" /><polyline fill="none" points="176,287 174,289 172,294 170,296 168,296 168,299 172,308 168,297 169,296 171,297 173,304 171,295" stroke="black" stroke-width="2" /><polyline fill="none" points="327,288 331,290 324,295 331,300 327,303 331,290 334,301 325,306 333,304 340,310 345,307 348,314 351,304 345,292 349,286 332,286 343,290 339,300 342,291 346,291 349,310 346,304 341,310 332,290" stroke="black" stroke-width="2" /><polyline fill="none" points="312,284 311,284 311,286 310,287 309,286 308,287 311,287 312,288 310,290 308,290 311,290 311,289 312,288 311,287 311,285" stroke="black" stroke-width="2" /><polyline fill="none" points="196,286 197,291 204,293 202,295 211,293 204,293 206,290 210,290 214,294 214,292 211,290 198,291 196,287 199,284 201,288 210,285 212,282 218,283 227,291 226,294 226,287 213,282 205,287 199,284" stroke="black" stroke-width="2" /><polyline fill="none" points="260,278 262,281 258,282 256,286 261,282 265,291 264,294 259,288 256,288 251,292 249,292 247,288 249,285 247,289 254,299 251,292 259,288 262,293 266,293" stroke="black" stroke-width="2" /><polyline fill="none" points="243,277 239,281 234,282 232,280 234,282 229,286 224,283 228,285 232,289 233,292 231,287 229,286 233,284 234,282 236,283 235,282 236,281 239,281 241,283 240,280" stroke="black" stroke-width="2" /><polyline fill="none" points="272,276 276,276 277,277 279,277 280,278 281,278 285,282 285,283 286,284 287,284 283,279 284,278 283,279 282,278 280,278 279,277 277,277 276,276 274,276 273,275" stroke="black" stroke-width="2" /><polyline fill="none" points="143,273 142,276 134,276 141,277 138,282 130,276 123,277 130,276 136,281 131,296 136,304 139,303 132,300 136,281 147,288 148,297 147,288 138,283" stroke="black" stroke-width="2" /><polyline fill="none" points="329,273 329,275 340,279 358,278 340,279 330,274 332,272 344,274 354,273 358,275 355,273" stroke="black" stroke-width="2" /><polyline fill="none" points="227,272 225,274 224,274 224,275 223,276 222,275 221,275 222,275 223,276 223,279 220,282 221,282 223,280 223,276 225,274 226,274 226,273" stroke="black" stroke-width="2" /><polyline fill="none" points="254,278 253,286 252,280 265,272 279,272 289,279 296,295 290,317 296,302 294,281 299,294 296,314 298,285 289,270 292,283 279,272" stroke="black" stroke-width="2" /><polyline fill="none" points="317,269 316,270 317,276 319,278 315,285 316,287 315,289 316,291 319,292 323,290 322,285 323,284 325,285 321,281 325,278 328,282 327,286 328,281 325,277 324,278 323,277 322,271" stroke="black" stroke-width="2" /><polyline fill="none" points="166,269 166,280 168,282 172,282 174,280 169,275 169,273 169,276 171,278 170,279 171,278 174,280 171,282 169,282 166,279" stroke="black" stroke-width="2" /><polyline fill="none" points="305,270 307,270 308,269 309,270 309,273 307,276 307,279 309,279 311,282 314,282 313,277 311,276 308,279 307,278 308,274 309,273 309,270 308,269 309,268" stroke="black" stroke-width="2" /><polyline fill="none" points="127,270 125,273 124,268 123,274 117,270 120,275 113,270 116,275 90,290 78,301 84,302 85,298 119,278 131,293 120,277 102,290 100,288" stroke="black" stroke-width="2" /><polyline fill="none" points="112,268 85,277 74,299 72,331 82,402 75,411 81,395 89,395 81,395 74,299 86,277" stroke="black" stroke-width="2" /><polyline fill="none" points="216,267 211,267 212,268 211,269 212,269 216,274 214,276 209,275 207,277 209,282 207,278 210,275 212,275 213,277 215,276 216,274 212,268 213,267" stroke="black" stroke-width="2" /><polyline fill="none" points="71,263 71,264 70,265 71,265 72,266 73,266 74,267 75,267 74,266 73,266 71,264 72,263" stroke="black" stroke-width="2" /><polyline fill="none" points="271,262 272,263 272,265 271,266 271,267 272,267 274,269 277,268 278,269 280,269 281,270 280,269 278,269 277,268 274,269 272,267 272,263" stroke="black" stroke-width="2" /><polyline fill="none" points="265,262 266,263 265,264 266,264 267,265 267,266 268,267 268,268 269,269 270,269 269,269 268,268 268,267 267,266 267,264 266,263 266,262" stroke="black" stroke-width="2" /><polyline fill="none" points="222,262 221,263 221,266 221,264 222,263 224,263 225,264 225,267 226,268 226,269 227,268 225,266 225,264 224,263 224,262 223,263" stroke="black" stroke-width="2" /><polyline fill="none" points="261,259 266,270 261,260 272,259 287,265 297,276 303,297 298,315 303,297 300,282 304,281 308,295 305,300 306,284 297,275 305,273 297,271 303,272 297,275 282,262" stroke="black" stroke-width="2" /><polyline fill="none" points="119,260 127,268 130,268 132,265 140,271 143,269 133,258 137,265 143,269 141,271 137,269 128,259 124,261 130,266 129,268" stroke="black" stroke-width="2" /><polyline fill="none" points="65,257 78,265 63,289 67,337 47,333 55,345 38,346 26,332 24,363 40,343 52,344 40,349 51,348 46,361 59,360 52,346 67,350 52,367 68,355 46,337 68,338 63,290 75,287 78,264" stroke="black" stroke-width="2" /><polyline fill="none" points="61,257 53,260 44,268 40,278 42,280 42,287 42,280 48,269 55,268 55,263 58,260 61,263 59,267 60,272 59,268 61,262 59,260 62,258" stroke="black" stroke-width="2" /><polyline fill="none" points="173,256 172,257 172,258 175,261 175,259 176,258 176,257 175,256" stroke="black" stroke-width="2" /><polyline fill="none" points="168,255 167,257 167,262 170,265 174,266 175,265 177,265 179,263 180,257 180,260 178,264 176,263 171,263 169,264 167,262" stroke="black" stroke-width="2" /><polyline fill="none" points="166,254 164,262 164,273 165,266 173,269 175,268 177,270 176,276 178,269 177,267 176,269 175,268 173,269 168,267 167,265 166,267 164,265" stroke="black" stroke-width="2" /><polyline fill="none" points="73,254 55,255 40,269 41,311 52,305 45,281 57,280 51,291 63,283 50,298 55,294 56,302 64,283 58,284 57,277 45,280 47,304 37,293 40,270 58,254 79,259" stroke="black" stroke-width="2" /><polyline fill="none" points="52,250 52,251 55,251 56,250 58,250 59,251 58,252 59,251 61,251 60,251 59,250 56,250 55,249 55,250 54,251 53,251" stroke="black" stroke-width="2" /><polyline fill="none" points="215,246 216,248 212,254 214,258 212,264 218,266 219,275 213,280 217,279 219,276 217,252 220,249 218,248 217,261 215,262 212,255 215,251" stroke="black" stroke-width="2" /><polyline fill="none" points="207,246 205,247 198,260 197,265 195,267 197,265 199,266 195,272 208,256 204,260 203,257 205,253 211,251" stroke="black" stroke-width="2" /><polyline fill="none" points="191,246 186,318 168,347 186,338 195,306 214,406 196,445 180,451 160,426 173,448 191,451 214,407 195,339 200,305 187,306" stroke="black" stroke-width="2" /><polyline fill="none" points="164,245 164,247 165,247 164,246" stroke="black" stroke-width="2" /><polyline fill="none" points="90,244 90,245 89,246 89,248 88,249 89,248 89,246 90,245" stroke="black" stroke-width="2" /><polyline fill="none" points="98,248 97,260 103,243 105,250 101,255 108,264 104,251 111,251 112,266 113,258 122,253 113,258 118,250 112,254 103,247 110,242 138,259 114,242 103,242" stroke="black" stroke-width="2" /><polyline fill="none" points="304,241 306,250 303,253 308,252 302,258 309,254 301,264 299,258 297,264 299,262 301,267 298,269 294,262 301,256 291,255 289,250 299,250 294,246 289,249 291,265 294,254 294,266 299,269 310,252 306,250" stroke="black" stroke-width="2" /><polyline fill="none" points="160,241 159,241 158,240 157,240 157,241 156,242 156,243 153,245 153,247 156,247 154,247 153,246 156,243 156,242 158,240 159,241" stroke="black" stroke-width="2" /><polyline fill="none" points="171,239 171,240 167,244 167,250 168,251 168,253 169,252 171,252 169,252 167,250 167,248 169,246 171,250 170,247 167,245 170,242" stroke="black" stroke-width="2" /><polyline fill="none" points="92,239 92,240 91,241 91,242 91,241 92,240" stroke="black" stroke-width="2" /><polyline fill="none" points="257,237 246,281 232,299 230,290 228,301 212,305 228,301 227,322 230,299 232,324 235,300 231,353 236,334 240,350 234,295 257,258" stroke="black" stroke-width="2" /><polyline fill="none" points="347,236 346,236 346,239 342,241 342,242 343,240 345,241 345,246 343,248 341,254 337,257 338,258 345,247 345,240" stroke="black" stroke-width="2" /><polyline fill="none" points="130,236 129,238 129,241 135,248 139,248 140,249 144,249 145,248 144,249 136,248 129,240" stroke="black" stroke-width="2" /><polyline fill="none" points="160,234 156,234 156,237 157,238 157,237 156,236 156,235 157,234" stroke="black" stroke-width="2" /><polyline fill="none" points="89,271 97,242 109,233 113,233 123,246 138,255 141,264 145,258 146,262 147,257 141,261 141,257 124,246 114,233 108,233 97,241" stroke="black" stroke-width="2" /><polyline fill="none" points="226,232 225,234 225,237 223,240 223,242 222,243 222,246 221,247 222,248 222,252 222,248 221,247 222,246 222,243 225,237" stroke="black" stroke-width="2" /><polyline fill="none" points="153,231 152,232 152,234 153,235 153,242 154,242 153,241 153,240 154,239 155,239 154,239 153,238 153,235 152,234 152,233 153,232" stroke="black" stroke-width="2" /><polyline fill="none" points="299,230 301,230 302,231 301,232 301,233 301,232 303,230 305,230 306,231 306,232 303,235 303,236 304,235 304,234 305,233 306,233 306,231 305,230" stroke="black" stroke-width="2" /><polyline fill="none" points="124,235 122,236 114,230 99,234 89,254 88,269 89,254 95,239 101,233 114,230 129,245 126,239 127,242 124,241 122,237" stroke="black" stroke-width="2" /><polyline fill="none" points="257,229 259,233 257,235 255,230 256,234 251,239 255,244 252,258 247,262 246,268 247,263 252,258 255,242 251,239 259,234" stroke="black" stroke-width="2" /><polyline fill="none" points="196,229 195,230 194,229 193,229 194,230 194,232 194,231" stroke="black" stroke-width="2" /><polyline fill="none" points="297,228 295,233 293,235 293,238 296,239 297,238 301,238 302,239 299,246 301,248 302,247 301,248 300,247 300,242 303,238 297,238 296,239 293,237 294,235 295,236 294,234 298,228" stroke="black" stroke-width="2" /><polyline fill="none" points="202,228 203,228 205,230 205,231 206,231 207,232 205,230 205,229 204,228" stroke="black" stroke-width="2" /><polyline fill="none" points="340,227 340,232 337,232 340,236 334,247 334,256 339,265 336,269 332,264 336,269 347,257 346,252 346,258 339,265 334,256 336,243 339,242 338,251 339,242 337,240 341,239 339,238" stroke="black" stroke-width="2" /><polyline fill="none" points="305,227 303,227 302,228 300,228 302,228 303,227" stroke="black" stroke-width="2" /><polyline fill="none" points="185,228 172,225 176,232 153,252 152,284 141,281 158,298 123,325 107,323 126,324 158,300 163,252 155,293 154,252 172,236 178,256 182,242 170,229 183,236" stroke="black" stroke-width="2" /><polyline fill="none" points="156,225 159,228 159,227 157,225" stroke="black" stroke-width="2" /><polyline fill="none" points="76,225 78,228 77,229 76,229 75,228 75,229 76,230 77,229 78,229 78,227 76,225 75,226 73,226 71,228 71,230 70,231 70,233 69,234 70,233 71,228 73,226 75,226" stroke="black" stroke-width="2" /><polyline fill="none" points="231,224 228,227 232,240 229,265 230,278 227,282 225,280 227,282 230,278 229,265 232,238 228,228" stroke="black" stroke-width="2" /><polyline fill="none" points="112,224 112,226 113,226 114,227 115,227 118,230 119,230 120,231 115,226 113,226 112,225" stroke="black" stroke-width="2" /><polyline fill="none" points="94,224 91,224 88,227 87,234 91,232 88,228 92,224 97,229 92,229 94,232 90,237 89,236 89,241 83,254 85,254 84,250 89,239 97,229" stroke="black" stroke-width="2" /><polyline fill="none" points="72,223 68,229 68,232 69,227 76,222 80,226 80,231 75,233 73,229 73,232 81,232 83,236 79,239 74,239 83,238 82,230 81,232 80,227 82,225 81,224 82,225 80,226 76,222" stroke="black" stroke-width="2" /><polyline fill="none" points="302,220 300,222 299,222 297,224 298,224 299,225 298,224 300,222 302,224 302,225 302,224 303,223 302,223 301,222 301,221" stroke="black" stroke-width="2" /><polyline fill="none" points="143,220 148,249 147,254 143,255 140,253 145,252 139,253 135,250 142,255 147,255 147,251 151,248 150,246 149,249 147,248 144,224 150,223 145,223" stroke="black" stroke-width="2" /><polyline fill="none" points="216,219 215,231 212,235 208,236 202,231 208,236 205,240 207,237 211,240 213,238 215,240 212,242 214,244 218,242 216,244 212,242 218,239 213,238 213,233 215,231 219,235 218,224 219,232 217,233 215,230" stroke="black" stroke-width="2" /><polyline fill="none" points="231,215 234,225 232,233 236,227 237,232 245,236 239,239 234,247 241,238 247,237 244,235 246,233 240,234 237,231 234,222 240,220 251,222 256,227 254,228 256,227 254,222 243,220 234,222" stroke="black" stroke-width="2" /><polyline fill="none" points="226,215 226,216 224,218 224,223 223,224 223,225 221,228 222,228 222,227 223,226 223,224 224,223 224,219 226,217" stroke="black" stroke-width="2" /><polyline fill="none" points="153,215 154,219 152,222 154,222 154,229 158,232 160,230 164,232 163,239 167,236 165,224 161,222 161,228 161,225 164,224 167,231 165,237 163,230 158,231 154,228" stroke="black" stroke-width="2" /><polyline fill="none" points="120,215 120,216 121,216 122,217 123,217 122,216 121,216" stroke="black" stroke-width="2" /><polyline fill="none" points="114,217 115,224 120,219 132,226 128,233 122,226 121,229 126,234 133,225 136,228 136,239 132,238 136,241 136,228 141,220 139,224 134,219 139,224 136,228 120,219 114,221 113,219 118,215" stroke="black" stroke-width="2" /><polyline fill="none" points="73,214 73,219 68,224 66,228 66,235 70,242 71,241 72,242 72,241 71,241 66,235 66,228 68,224 73,220" stroke="black" stroke-width="2" /><polyline fill="none" points="169,213 169,214 168,215 170,218 170,220 171,221 172,221 175,224 174,223 174,222 173,221 172,221 170,219 170,218 168,215 170,213" stroke="black" stroke-width="2" /><polyline fill="none" points="303,211 302,211 303,212 303,214 302,215 302,217 301,218 299,218 298,219 299,219 300,218 302,218 302,215 303,214" stroke="black" stroke-width="2" /><polyline fill="none" points="127,211 126,212 123,213 124,214 124,215 125,216 125,218 126,219 125,218 125,217 126,216 131,214 129,214 127,216 125,216 124,215 124,214 126,212 129,212 128,212" stroke="black" stroke-width="2" /><polyline fill="none" points="302,207 298,213 303,208 308,214 307,227 314,243 311,268 315,274 311,268 314,243 307,227 308,214" stroke="black" stroke-width="2" /><polyline fill="none" points="80,207 79,209 76,209 77,212 75,213 77,216 81,215 83,217 81,220 77,220 84,220 85,237 84,220 87,209 84,220 82,214 79,216 76,214 77,212 79,213 77,210" stroke="black" stroke-width="2" /><polyline fill="none" points="152,204 153,205 153,210 154,211 154,212 155,213 156,216 156,215 155,214 156,213 157,213 156,213 153,210 153,207 154,206 156,206 154,206" stroke="black" stroke-width="2" /><polyline fill="none" points="184,203 182,203 181,204 181,206 182,206 183,207 183,208 184,207 184,206 185,205 184,204" stroke="black" stroke-width="2" /><polyline fill="none" points="275,203 275,205 276,205 277,206 278,205 279,205 279,204 278,203 278,202 276,202" stroke="black" stroke-width="2" /><polyline fill="none" points="122,201 122,203 123,204 123,209 119,213 120,213 121,212 121,211 123,209 123,203 122,202" stroke="black" stroke-width="2" /><polyline fill="none" points="266,198 267,198 268,199 268,200 269,200 270,201 271,201 271,198" stroke="black" stroke-width="2" /><polyline fill="none" points="242,196 242,197 241,198 241,199 239,202 239,207 238,208 238,210 238,208 239,207 239,205 240,204 239,203 239,202 241,200 241,198 242,197" stroke="black" stroke-width="2" /><polyline fill="none" points="259,192 262,199 262,192 276,196 290,214 285,241 284,210 279,213 287,227 277,231 274,210 257,204 269,206 279,219 272,256 279,250 272,247 280,241 281,248 288,238 290,214 277,196" stroke="black" stroke-width="2" /><polyline fill="none" points="203,192 202,192 203,194 201,196 200,201 201,202 199,205 198,211 195,215 195,217 197,216 199,218 198,219 199,218 195,215 197,212 198,214 200,214 197,212 201,202 201,197 204,194" stroke="black" stroke-width="2" /><polyline fill="none" points="152,188 151,189 151,193 152,194 151,195 151,197 152,198 152,201 156,204 156,203 155,202 153,202 152,201 152,196 151,195 152,194 151,193 151,189" stroke="black" stroke-width="2" /><polyline fill="none" points="115,188 113,188 112,187 112,188 114,188 117,191 116,192 116,193 113,195 110,195 109,196 108,196 108,197 107,198 111,195 113,195 114,196 114,195 117,192 117,191" stroke="black" stroke-width="2" /><polyline fill="none" points="107,187 106,187 103,190 102,190 102,191 99,194 99,195 102,192 102,191 103,190 104,190 106,188 107,189 107,190 106,191 106,193 107,194 106,193 106,191 107,190 107,189 106,188" stroke="black" stroke-width="2" /><polyline fill="none" points="165,185 164,186 162,186 161,187 160,187 161,187 162,188 162,189 164,189 163,189 162,188 162,187 163,186 164,186" stroke="black" stroke-width="2" /><polyline fill="none" points="174,184 173,185 173,187 174,188 177,188 178,187 178,185 177,184" stroke="black" stroke-width="2" /><polyline fill="none" points="146,184 150,214 147,217 142,215 138,203 139,195 138,192 139,196 137,198 142,216 150,220 146,219 150,215" stroke="black" stroke-width="2" /><polyline fill="none" points="154,181 154,182 156,184 157,184" stroke="black" stroke-width="2" /><polyline fill="none" points="246,177 243,192 246,198 241,211 249,213 242,210 246,198 249,202 246,208 253,217 247,219 235,211 235,197 239,193 235,197 235,211 230,212 233,203 230,213 236,212 248,220 253,214 246,207 249,202 243,193" stroke="black" stroke-width="2" /><polyline fill="none" points="244,177 239,181 231,196 232,198 229,206 222,217 228,209 240,180 243,177 244,181 239,191 243,185" stroke="black" stroke-width="2" /><polyline fill="none" points="156,177 152,177 150,178 150,180 149,181 147,181 146,179 146,181 147,182 148,181 151,185 150,184 150,179 153,177 155,177 157,179 158,182 157,178" stroke="black" stroke-width="2" /><polyline fill="none" points="121,176 100,186 83,211 81,202 73,204 63,228 65,244 44,251 39,267 40,260 52,254 45,259 45,251 65,245 63,228 73,205 80,202 84,211 101,186 121,182" stroke="black" stroke-width="2" /><polyline fill="none" points="233,177 234,176 235,176 237,178 239,178 238,178 237,177 236,177 234,175 234,176" stroke="black" stroke-width="2" /><polyline fill="none" points="228,175 228,176 227,177 227,179 226,180 226,183 226,180 227,179 227,177 228,176" stroke="black" stroke-width="2" /><polyline fill="none" points="119,174 123,174 124,175 125,175 126,176 127,176 128,177 128,176 126,176 125,175 124,175 123,174" stroke="black" stroke-width="2" /><polyline fill="none" points="55,173 44,195 20,203 28,204 41,193 37,202 28,208 15,205 15,219 19,207 23,212 28,208 31,265 24,275 38,254 30,260 28,208 47,192" stroke="black" stroke-width="2" /><polyline fill="none" points="225,170 225,171 224,172 224,180 223,181 223,188 223,181 224,180 224,176 225,175 225,174 224,173" stroke="black" stroke-width="2" /><polyline fill="none" points="169,169 163,217 168,204 182,221 173,201 195,186 184,225 191,192 210,179 196,190 197,172 181,194 179,182 174,200 177,179 165,179 181,175" stroke="black" stroke-width="2" /><polyline fill="none" points="207,169 207,172 208,173 210,173 211,172 212,172 211,172 210,173 208,173 207,172 207,170 208,169 208,168" stroke="black" stroke-width="2" /><polyline fill="none" points="214,167 200,230 193,235 194,219 189,222 178,279 167,285 164,275 165,284 173,285 181,272 189,223 196,245" stroke="black" stroke-width="2" /><polyline fill="none" points="143,166 127,181 106,227 99,226 101,209 119,195 105,203 105,196 94,200 89,212 95,222 90,206 95,210 96,198 105,203 99,231 109,226 127,182" stroke="black" stroke-width="2" /><polyline fill="none" points="223,162 209,199 206,218 209,231 211,227 206,224 209,199 223,166 211,203 212,224 211,203" stroke="black" stroke-width="2" /><polyline fill="none" points="199,157 197,161 198,163 197,164 199,162 200,162 202,164 200,167 201,168 201,170 201,168 200,167 203,164 207,165 204,163 202,164 200,162 198,162 197,161 199,159" stroke="black" stroke-width="2" /><polyline fill="none" points="158,157 158,158 159,158 160,159 160,158 159,158" stroke="black" stroke-width="2" /><polyline fill="none" points="180,166 173,165 167,160 167,156 169,155 167,155 167,161 171,164 167,166 162,173 158,176 168,166 174,168 169,166 171,164" stroke="black" stroke-width="2" /><polyline fill="none" points="183,154" stroke="black" stroke-width="2" /><polyline fill="none" points="200,147 200,152 199,153 201,156 203,156 205,158 205,160 207,162 207,161 205,159 204,154 203,156 201,156 200,155 200,152 202,151 200,150" stroke="black" stroke-width="2" /><polyline fill="none" points="108,146 121,159 115,168 118,169 113,172 116,172 127,161 129,163 127,167 119,172 124,171 130,175 124,171 129,163 128,159 119,169 117,167 121,159 118,152" stroke="black" stroke-width="2" /><polyline fill="none" points="19,145 18,146 18,148 17,149 17,155 18,156 17,155 17,153 18,152 20,154 20,156 20,153 19,152 19,151 18,152 17,151" stroke="black" stroke-width="2" /><polyline fill="none" points="36,142 36,145 37,146 37,147 37,145 36,144" stroke="black" stroke-width="2" /><polyline fill="none" points="29,142 31,144 31,149 30,150 29,150 27,148 27,147 28,146 27,146 27,149 28,149 29,150 31,150 32,151 30,153 30,154 31,153 32,150 31,149 31,144 30,143 30,142" stroke="black" stroke-width="2" /><polyline fill="none" points="196,140 194,141 192,141 192,144 189,147 187,147 184,145 184,143 182,142 180,142 182,142 184,144 184,146 189,147 191,146 192,144 192,142" stroke="black" stroke-width="2" /><polyline fill="none" points="168,140 168,145 172,149 173,149 174,150 176,150 178,152 181,153 180,153 178,151 173,149 168,144" stroke="black" stroke-width="2" /><polyline fill="none" points="38,140 38,141 39,142 39,144 40,145 40,146 39,147 40,147 40,145 39,144 39,141" stroke="black" stroke-width="2" /><polyline fill="none" points="157,136 155,138 157,137 161,141 161,146 158,153 150,160 152,163 150,170 153,174 158,170 156,165 162,161 164,154 167,153 165,151 163,159 157,164 150,161 154,156 159,155 159,151 161,153 159,151 161,141" stroke="black" stroke-width="2" /><polyline fill="none" points="169,134 171,139 170,138 170,135 171,134 176,137 178,140 180,139 182,140 189,140 195,138 192,139 191,138 189,140 182,140 181,139 178,139 173,134" stroke="black" stroke-width="2" /><polyline fill="none" points="28,133 19,136 24,134 25,136 22,137 21,139 23,137 26,138 23,144 24,153 27,153 23,151 24,147 26,151 23,145 26,140 25,137 29,135 27,136 25,135" stroke="black" stroke-width="2" /><polyline fill="none" points="234,130 222,159 216,162 217,160 221,161 225,153 227,158 225,157 224,160 225,158 226,162 232,145 229,148 230,152 227,156 225,151" stroke="black" stroke-width="2" /><polyline fill="none" points="89,133 100,145 105,145 105,144 101,145 90,133 93,130 102,142 95,133 96,131 95,132 93,130" stroke="black" stroke-width="2" /><polyline fill="none" points="55,124 53,127 54,129 47,130 49,131 46,134 47,140 50,141 50,146 50,129 55,133 51,135 54,143 53,146 52,134 56,136 56,142 60,140 56,140 53,127" stroke="black" stroke-width="2" /><polyline fill="none" points="192,124 193,123 194,124 194,125 196,123 195,124 194,124 193,123" stroke="black" stroke-width="2" /><polyline fill="none" points="178,119 177,119 176,118 175,119 172,119 171,120 170,120 168,122 167,122 168,122 170,120 171,120 172,119 175,119 176,118 177,119" stroke="black" stroke-width="2" /><polyline fill="none" points="357,117 350,262 353,249 358,249 353,235" stroke="black" stroke-width="2" /><polyline fill="none" points="198,115 190,118 189,125 190,127 198,127 200,124 202,126 201,140 193,151 182,151 193,152 201,140 202,125 199,124 197,127 192,127 189,124 190,119" stroke="black" stroke-width="2" /><polyline fill="none" points="172,115 171,117 180,116 185,123 181,126 174,125 180,126 174,129 170,125 176,121 169,124 169,128 177,129 184,124 188,138 181,136 183,127 180,137 189,137 184,119" stroke="black" stroke-width="2" /><polyline fill="none" points="101,115 101,118 98,121 96,121 96,127 99,133 103,137 105,142 106,142 96,127 96,122 101,119" stroke="black" stroke-width="2" /><polyline fill="none" points="71,113 68,115 69,126 69,121 68,120 68,116 69,115 71,116 71,121 72,122 72,125 71,126 72,126 71,115 70,114" stroke="black" stroke-width="2" /><polyline fill="none" points="345,111 343,114 348,116 350,122 349,205 349,117 352,113 358,114 352,112 348,116" stroke="black" stroke-width="2" /><polyline fill="none" points="107,111 116,125 116,132 113,135 102,121 109,129 108,133 100,124 108,133 107,144 109,142 114,146 107,139 110,132 127,152 123,157 130,149 116,132 115,122" stroke="black" stroke-width="2" /><polyline fill="none" points="105,110 105,114 104,115 103,115 105,115" stroke="black" stroke-width="2" /><polyline fill="none" points="64,110 62,114 58,114 60,111 57,114 63,115 67,129 64,129 63,119 57,125 59,138 62,134 60,123 63,124 64,130 67,130 65,118 62,114" stroke="black" stroke-width="2" /><polyline fill="none" points="241,107 242,144 238,118 234,139 247,154 226,164 234,170 220,222 233,171 246,175 238,165 258,187 280,192 295,222 288,199 258,187 241,162" stroke="black" stroke-width="2" /><polyline fill="none" points="224,106 224,110 230,110 231,109 231,107 230,107 229,106" stroke="black" stroke-width="2" /><polyline fill="none" points="181,106 183,114 182,107 179,106 172,109 164,123 167,131 166,137 167,131 164,123 170,115 171,111" stroke="black" stroke-width="2" /><polyline fill="none" points="188,105 188,115 188,107 191,107 191,114 191,107 196,107 202,116 202,120 193,121 198,120 202,123 201,118 203,116 201,115 198,108" stroke="black" stroke-width="2" /><polyline fill="none" points="80,104 78,105 78,108 76,110 74,108 75,109 73,112 74,113 74,115 73,116 74,117 75,122 77,122 78,121 78,118 79,116 82,114 82,112 83,111 83,109 81,107 81,105" stroke="black" stroke-width="2" /><polyline fill="none" points="200,100 200,102 199,103 201,105 201,104 200,104 199,103 201,101 201,100" stroke="black" stroke-width="2" /><polyline fill="none" points="190,99 191,100 191,103 190,104 191,104 192,103 193,103 192,103 191,102 192,101" stroke="black" stroke-width="2" /><polyline fill="none" points="181,100 182,101 181,102 181,103 184,103 186,100 187,100 188,101 188,102 187,103 188,103 188,100 185,100 185,102 184,103 182,103 181,102 182,101 182,99" stroke="black" stroke-width="2" /><polyline fill="none" points="294,95 289,187" stroke="black" stroke-width="2" /><polyline fill="none" points="287,97 288,97 289,96 291,96 289,96 288,95 288,96" stroke="black" stroke-width="2" /><polyline fill="none" points="297,94 297,96 297,95 298,94 300,96 300,95 299,95 298,94" stroke="black" stroke-width="2" /><polyline fill="none" points="199,93 198,94 198,97 199,98 198,99 199,98 199,97 198,96 198,94" stroke="black" stroke-width="2" /><polyline fill="none" points="178,94 170,101 171,106 164,114 162,112 165,108 162,104 164,102 162,104 159,101 160,95 163,94 161,92 159,101 165,108 161,112 164,114 160,116 161,118 171,106 179,103 172,106 169,103 173,99 175,102 173,98" stroke="black" stroke-width="2" /><polyline fill="none" points="240,91 240,92 239,93 239,95 240,96 241,96 242,97 242,98 246,98 245,97 246,96 241,96 239,94 239,93 240,92" stroke="black" stroke-width="2" /><polyline fill="none" points="163,90 166,93 167,96 166,97 164,96 165,97 164,98 162,98 163,98 165,100 167,100 171,98 166,100 164,98 165,97 169,96 168,96 167,95 168,94 167,94 165,92 165,91" stroke="black" stroke-width="2" /><polyline fill="none" points="341,86 345,90 339,94 342,95 339,98 336,96 339,98 342,96 351,96 352,101 349,102 351,103 349,104 358,105 351,103 352,96 346,97 344,95 347,95 346,93 343,96 341,94 345,90 344,87" stroke="black" stroke-width="2" /><polyline fill="none" points="156,84 146,108 161,128 148,134 136,111 152,146 135,166 136,143 128,154 148,177 141,157 158,132 173,156 196,156 188,183 196,155 165,148 156,100 150,127" stroke="black" stroke-width="2" /><polyline fill="none" points="338,82 338,83 339,83 340,84 341,83 353,83 354,82 355,83 358,83 355,83 354,82 353,83 339,83" stroke="black" stroke-width="2" /><polyline fill="none" points="185,81 186,81 187,82 187,84 188,83 189,83 191,85 193,85 195,87 195,89 197,91 197,92 198,91 193,85 192,85 190,83 188,83 187,82 187,81" stroke="black" stroke-width="2" /><polyline fill="none" points="182,81 182,84 184,85 182,87 183,89 182,91 184,94 184,98 187,98 187,95 185,95 184,94 184,93 186,92 186,90 184,90 182,88 182,87 185,84 184,85 182,83" stroke="black" stroke-width="2" /><polyline fill="none" points="163,76 162,76 159,79 159,82 161,82 160,82 159,81 159,80" stroke="black" stroke-width="2" /><polyline fill="none" points="97,76 94,82 92,81 94,83 97,76 99,78 94,91 91,92 91,85 92,89 86,91 83,98 78,101 80,99 83,101 85,109 89,98 88,92 92,93 91,100 94,88 97,86 99,79" stroke="black" stroke-width="2" /><polyline fill="none" points="188,73 186,78 204,97 204,108 200,107 206,111 206,141 215,148 216,155 213,158 201,145 212,157 209,164 213,165 216,149 206,141 204,95" stroke="black" stroke-width="2" /><polyline fill="none" points="177,73 164,78 176,74 178,76 174,83 170,82 166,84 171,82 175,84 170,91 169,88 165,88 167,87 169,89 167,90 172,94 175,94 171,91 174,86 178,84 175,84 178,78" stroke="black" stroke-width="2" /><polyline fill="none" points="356,72 333,72 328,268 334,106 341,105 333,85 337,77 358,79 337,77" stroke="black" stroke-width="2" /><polyline fill="none" points="298,72 295,72 294,73 292,72 294,74 292,76 291,74 289,76 286,76 290,76 291,75 292,76 293,75 294,76 294,77 290,81 295,75 296,76 297,75 297,73" stroke="black" stroke-width="2" /><polyline fill="none" points="240,71 240,73 241,74 241,80 242,81 242,84 241,85 242,86 242,89 244,89 245,88 244,86 242,86 241,85 243,83 244,84 245,83 243,83 241,80 241,74 240,73" stroke="black" stroke-width="2" /><polyline fill="none" points="224,71 224,74 226,76 226,79 225,80 224,77 225,80 227,79 231,80 228,83 224,82 230,88 231,102 232,102 230,87 227,84 231,80 226,78" stroke="black" stroke-width="2" /><polyline fill="none" points="178,71 175,70 172,72 169,72 168,73 167,73 166,72 162,72 165,72 166,73 169,73 170,72 173,72 174,71" stroke="black" stroke-width="2" /><polyline fill="none" points="163,70 174,66 184,65 185,66 183,68 178,69 180,70 180,73 180,70 186,66 190,65 191,66 193,65 195,67 196,66 179,65" stroke="black" stroke-width="2" /><polyline fill="none" points="97,63 93,64 91,70 86,78 87,81 89,81 89,78 87,77 90,73 91,68 93,66 95,68 94,69 94,74 92,78 93,77 94,69 96,67" stroke="black" stroke-width="2" /><polyline fill="none" points="355,60 355,66 357,68 358,67 357,67 355,65 355,61 356,60 358,60" stroke="black" stroke-width="2" /><polyline fill="none" points="284,60 281,189 283,86 288,81 284,82 284,73 306,69 294,67 301,67 286,73 281,65" stroke="black" stroke-width="2" /><polyline fill="none" points="233,60 229,64 231,65 233,64 234,65 237,65 238,64 241,67 241,69 244,75 244,79 245,81 244,79 244,74 240,65 235,60" stroke="black" stroke-width="2" /><polyline fill="none" points="90,59 44,119 7,136 37,125 33,156 33,142 45,128 37,125 53,111 54,118 59,109 53,111 77,82 81,96" stroke="black" stroke-width="2" /><polyline fill="none" points="154,56 155,57 163,58 164,61 169,65 173,63 179,63 175,63 174,62 169,65 168,63 165,61 166,59 165,60 164,58 160,58" stroke="black" stroke-width="2" /><polyline fill="none" points="343,54 343,56 344,57 348,58 351,61 351,63 346,71 350,66 350,64 351,63 350,59 351,58 356,58 351,58 350,59 349,58 346,58" stroke="black" stroke-width="2" /><polyline fill="none" points="170,50 170,57 169,58 169,60 174,60 174,59 173,58 173,56 174,55 173,55 173,59 172,60 170,60 169,59 170,58" stroke="black" stroke-width="2" /><polyline fill="none" points="310,47 305,63 298,57 290,64 296,54 303,59 296,48 289,63 312,62 303,85 308,89 286,91 308,91 302,95 307,181" stroke="black" stroke-width="2" /><polyline fill="none" points="222,46 222,47 223,48 223,49 222,50 222,51 223,52 222,51 222,50 223,49 223,48 222,47" stroke="black" stroke-width="2" /><polyline fill="none" points="175,46 174,49 176,46 177,47 177,52 174,53 172,51 173,53 175,53 177,55 178,58 176,59 182,58 185,61 186,59 188,59 180,58 176,54 177,52 177,45" stroke="black" stroke-width="2" /><polyline fill="none" points="146,51 146,53 150,52 153,53 154,52 156,54 160,55 167,55 167,51 166,55 161,55 154,52 152,53 151,52 152,49 151,46 152,45 151,46 152,48 151,51 149,53 147,53" stroke="black" stroke-width="2" /><polyline fill="none" points="253,42 260,43 259,50 258,49 255,50 252,47 252,44 252,48 254,50 259,50 260,52 258,54 254,54 252,51 253,52 251,54 247,53 248,54 260,53 261,50 260,43 262,42" stroke="black" stroke-width="2" /><polyline fill="none" points="96,42 99,44 102,44 103,45 106,45 107,44 108,45 107,44 106,45 103,45 102,44 100,44 99,43 98,43 97,42" stroke="black" stroke-width="2" /><polyline fill="none" points="26,39 25,84 21,84 25,86 22,89 23,95 22,90 24,87 27,94 24,82" stroke="black" stroke-width="2" /><polyline fill="none" points="101,36 103,36 104,35 105,35 105,33 107,30 108,30 110,33 112,33 113,32 114,32 114,30 114,31 112,33 111,33 108,30 106,30 106,32 105,33 105,34 103,36" stroke="black" stroke-width="2" /><polyline fill="none" points="91,51 95,45 119,51 118,39 160,43 162,50 162,43 219,44 113,38 121,48 94,45 93,35 103,39 96,33 117,23 94,29" stroke="black" stroke-width="2" /><polyline fill="none" points="357,23 353,20 352,22 350,22 354,21 356,23 354,24 351,28 350,27 350,24 349,24 347,29 349,24 350,25 350,28 352,28 354,25 356,26 354,25 356,23 357,24" stroke="black" stroke-width="2" /><polyline fill="none" points="234,20 234,31 234,27 235,26 234,24 234,22 235,21 237,23 237,25 238,24 240,25 242,25 241,25 239,23 239,22 238,24 236,22 236,21" stroke="black" stroke-width="2" /><polyline fill="none" points="134,19 135,20 135,24 136,25 133,28 134,28 135,27 136,28 135,27 135,26 136,25 135,22 136,21 139,21 140,20 139,20 138,21 137,20 137,19 137,20 136,21" stroke="black" stroke-width="2" /><polyline fill="none" points="144,18 142,18 142,24 142,22 143,21 144,22 144,21 145,20 144,20 143,21 142,20 142,19 143,18" stroke="black" stroke-width="2" /><polyline fill="none" points="221,18 219,18 217,21 215,17 216,18 216,20 215,21 214,19 213,21 212,20 211,21 209,20 214,22 214,24 215,25 215,27 214,28 215,27 214,22 215,21 218,21 221,23" stroke="black" stroke-width="2" /><polyline fill="none" points="149,17 147,17 147,22 146,23 146,24 147,23 147,21 148,20 149,21 149,26 148,27 146,26 139,27 138,29 140,27 143,27 144,26 146,27 149,27" stroke="black" stroke-width="2" /><polyline fill="none" points="177,15 169,15 166,19 165,16 157,16 165,18 154,20 152,18 155,17 152,17 152,25 153,20 155,26 156,19 167,19 168,26 168,19 171,23 171,15 173,19 174,15 176,17 176,25" stroke="black" stroke-width="2" /><polyline fill="none" points="106,37 284,47 269,24 282,47 217,31 226,19 182,29 206,13 281,39 194,12" stroke="black" stroke-width="2" /><polyline fill="none" points="316,1 331,17 337,32 340,52 335,68 344,46 351,41 353,46 357,43 349,34 356,28 349,31 351,40 341,52 333,20" stroke="black" stroke-width="2" /><polyline fill="none" points="302,1 317,12 330,33 333,61 329,69 331,76 334,77 330,73 333,45 329,30 313,7" stroke="black" stroke-width="2" /><polyline fill="none" points="155,4 202,2 257,17 235,3 248,15 215,1" stroke="black" stroke-width="2" /><polyline fill="none" points="22,0 18,1 23,5 23,23 16,29 22,27 23,37 22,61 16,64 22,63 21,80 16,94 11,96 20,101 27,97 15,96 21,81" stroke="black" stroke-width="2" /></svg>