<?xml version="1.0" encoding="utf-8" ?>
<svg baseProfile="full" height="168px" version="1.1" width="300px" xmlns="http://www.w3.org/2000/svg" xmlns:ev="http://www.w3.org/2001/xml-events" xmlns:xlink="http://www.w3.org/1999/xlink"><defs /><polyline fill="none" points="137,146 130,156 127,156 124,153 123,154 128,157 127,160 132,164 137,163 145,155 134,164 130,162 136,158 135,154 136,157 133,160 130,157" stroke="black" stroke-width="2" /><polyline fill="none" points="133,146 131,146 132,149 129,153 129,150 128,151 125,149 129,143 120,153 106,156 99,162 107,156 119,154 125,149 126,152 127,150 128,153 130,153" stroke="black" stroke-width="2" /><polyline fill="none" points="127,140 126,142 122,137 126,142 116,151 113,150 119,147 117,146 111,152 107,152 104,146 99,149 96,145 99,143 95,147 100,157 108,152 119,150" stroke="black" stroke-width="2" /><polyline fill="none" points="132,136 130,138 130,141 131,142 131,143 133,143 134,144 135,143 136,143 137,142 137,141 138,140 137,139 137,138 135,136" stroke="black" stroke-width="2" /><polyline fill="none" points="138,134 141,134 142,133 141,134 139,134 138,133" stroke="black" stroke-width="2" /><polyline fill="none" points="145,132 144,132 145,133 142,136 141,136 140,137 139,137 141,137 145,133" stroke="black" stroke-width="2" /><polyline fill="none" points="81,132 80,132 77,135 76,135 76,136 77,135 78,135" stroke="black" stroke-width="2" /><polyline fill="none" points="157,131 155,133 155,136 160,140 160,144 161,145 165,144 166,142 166,140 165,139 162,139 161,140 159,139 159,138 161,137 163,134 161,131" stroke="black" stroke-width="2" /><polyline fill="none" points="72,123 75,129 72,133 73,138 88,137 97,162 89,138 81,135 74,138 72,135 75,126 81,126 77,132 87,125 74,127 73,124 79,122" stroke="black" stroke-width="2" /><polyline fill="none" points="153,121 152,122 151,122 151,123 150,124 150,127 152,129 153,129 154,130 155,130 157,128 159,128 159,126 160,125 158,122 157,122 156,121" stroke="black" stroke-width="2" /><polyline fill="none" points="181,119 180,120 177,120 176,121 176,126 178,128 182,128 184,125 183,124 184,123 184,122" stroke="black" stroke-width="2" /><polyline fill="none" points="120,119 114,118 111,120 111,125 115,128 109,129 108,134 112,136 110,138 106,137 105,143 109,143 111,141 110,138 115,135 114,129 121,125" stroke="black" stroke-width="2" /><polyline fill="none" points="101,118 95,123 92,127 93,129 89,131 87,133 85,133 83,131 84,129 83,130 83,133 84,132 85,133 88,133 90,131 93,130 92,128 94,126 95,123 101,119" stroke="black" stroke-width="2" /><polyline fill="none" points="152,117 151,117 148,122 141,129 140,128 133,128 140,128 141,129 139,131 148,123 149,120" stroke="black" stroke-width="2" /><polyline fill="none" points="179,116 179,117 180,117" stroke="black" stroke-width="2" /><polyline fill="none" points="183,115 182,115 181,114 182,113 181,114 180,114 181,114 182,115" stroke="black" stroke-width="2" /><polyline fill="none" points="183,107 186,115 184,117 194,121 202,121 220,112 216,113 215,109 212,108 216,113 208,118 207,113 210,111 207,109 207,115 202,117 206,116 207,119 199,121 197,118 198,120 194,121 185,116 187,114" stroke="black" stroke-width="2" /><polyline fill="none" points="60,109 65,106 69,108 71,111 72,110 73,111 72,113 77,110 78,111 85,110 89,107 81,111 79,111 77,109 76,111 74,111 73,110 74,109 72,110 66,106 62,107" stroke="black" stroke-width="2" /><polyline fill="none" points="126,103 125,115 129,122 132,124 142,123 145,120 146,113 145,119 141,123 132,124 125,115" stroke="black" stroke-width="2" /><polyline fill="none" points="202,102 201,103 201,107 205,107 206,106 206,103 205,102" stroke="black" stroke-width="2" /><polyline fill="none" points="176,107 176,102 175,109 169,115 162,116 150,104 159,115 166,116 171,114 175,110" stroke="black" stroke-width="2" /><polyline fill="none" points="227,114 215,101 223,115 186,121 198,125 191,134 174,128 198,138 172,135 171,158 157,154 152,138 160,151 147,150 146,138 147,150 171,158 178,139 175,163 139,144 137,153 176,165 180,142 195,142 199,124" stroke="black" stroke-width="2" /><polyline fill="none" points="193,99 192,100 192,104 194,106 197,106 198,105 199,106 198,105 198,103 199,102 199,100 197,98 195,98 194,99" stroke="black" stroke-width="2" /><polyline fill="none" points="190,96 186,94 181,96 180,102 177,96 165,91 175,100 173,96 178,97 180,103 178,112 164,121 156,118 152,110 150,114 151,110 154,117 162,121 172,118 178,113 180,102 189,102" stroke="black" stroke-width="2" /><polyline fill="none" points="109,90 102,94 98,100 99,107 106,112 111,112 120,105 111,112 106,112 99,106 99,98" stroke="black" stroke-width="2" /><polyline fill="none" points="114,89 103,98 101,102 101,104 103,106 103,107 103,106 101,104 103,99" stroke="black" stroke-width="2" /><polyline fill="none" points="112,87 108,87 107,88 105,88 104,89 102,89 101,90 99,90 101,90 102,89 104,89 105,88 107,88 108,87" stroke="black" stroke-width="2" /><polyline fill="none" points="66,87 67,87" stroke="black" stroke-width="2" /><polyline fill="none" points="223,86 216,82 221,80 217,80 216,83 221,83 222,88 215,94 207,87 209,85 214,87 207,86 209,90 206,92 194,87 194,90 196,88 205,92 209,90 212,93 208,95 213,92 215,94 211,98 213,99 211,98" stroke="black" stroke-width="2" /><polyline fill="none" points="195,80 198,83 198,84 199,85 201,85 202,86 203,85 204,85 204,84 205,83 204,82 204,80 198,80 197,81 196,81" stroke="black" stroke-width="2" /><polyline fill="none" points="60,83 66,91 52,115 91,123 96,111 108,117 121,109 132,134 123,107 108,117 96,107 83,120 53,115 72,86 84,82 99,93 70,101 95,101 76,118 101,92" stroke="black" stroke-width="2" /><polyline fill="none" points="186,70 186,71 191,75 193,81 190,87 183,92 176,93 170,91 172,93 184,92 190,88 193,80 191,74" stroke="black" stroke-width="2" /><polyline fill="none" points="113,70 111,71 106,71 105,70 103,71 96,71 92,74 91,78 92,77 92,75 97,71 103,71 104,70 106,71 112,71" stroke="black" stroke-width="2" /><polyline fill="none" points="180,69 170,70 171,73 166,74 175,73 182,76 184,80 183,76 170,72 175,69 182,70 188,79 186,85 176,90 167,88 176,90 186,86 188,75" stroke="black" stroke-width="2" /><polyline fill="none" points="76,69 77,70 79,70 80,71 81,71 82,72 82,71 81,71 80,70 80,69 79,68 79,67 79,69 78,70 77,69 77,68" stroke="black" stroke-width="2" /><polyline fill="none" points="109,66 97,67 92,69 88,73 88,78 94,86 100,87 105,85 100,87 94,86 91,83 88,74 97,67 111,68" stroke="black" stroke-width="2" /><polyline fill="none" points="66,57 69,63 72,67 74,68 77,64 81,64 83,66 86,64 86,63 84,66 82,64 79,63 72,66 71,65 72,62 72,63 70,64" stroke="black" stroke-width="2" /><polyline fill="none" points="204,56 200,56 199,58 201,56 204,58 196,64 192,60 197,58 193,58 191,60 192,64 188,60 185,60 180,66 176,67 182,64 184,67 183,65 187,63 183,65 182,63 187,60 191,64 186,68 188,68 193,63 197,64 204,59" stroke="black" stroke-width="2" /><polyline fill="none" points="72,57 73,58 74,58 75,59 75,61 76,61 77,62 77,61 78,60 78,59 78,60 77,61 76,61 75,60 75,58 74,58 73,57 74,56 73,57" stroke="black" stroke-width="2" /><polyline fill="none" points="216,55 213,54 208,57 208,59 210,56 213,56 216,59 213,62 214,64 212,64 214,66 211,66 212,70 208,74 201,71 195,72 193,67 192,72 201,71 207,74 202,77 194,76 204,77 213,69" stroke="black" stroke-width="2" /><polyline fill="none" points="121,58 117,63 119,70 112,75 111,80 117,87 117,94 121,99 126,100 131,97 135,103 145,104 150,97 156,98 161,94 165,76 158,71 160,66 157,60 148,61 142,54 135,55 131,60" stroke="black" stroke-width="2" /><polyline fill="none" points="148,57 149,56 153,57 164,49 170,49 175,53 170,49 164,49 154,56 150,57 149,55 152,47" stroke="black" stroke-width="2" /><polyline fill="none" points="197,46 213,50 222,49 217,68 207,79 216,71 222,49 215,50" stroke="black" stroke-width="2" /><polyline fill="none" points="176,47 165,45 154,51 153,50 154,51 152,54 157,49 165,45 175,47 178,52 177,56 171,64 165,67 175,61 178,53" stroke="black" stroke-width="2" /><polyline fill="none" points="105,51 106,52 106,50 107,48 109,46 111,46 112,45 113,46 116,46 118,47 121,50 121,49 117,47 116,45 115,46 113,46 112,45 111,46 109,46 107,47" stroke="black" stroke-width="2" /><polyline fill="none" points="102,51 105,57 112,62 105,56 102,50 104,45 110,42 115,42 125,49 130,48 126,49 118,43 110,42 103,45" stroke="black" stroke-width="2" /><polyline fill="none" points="95,42 97,44 97,43 96,43" stroke="black" stroke-width="2" /><polyline fill="none" points="156,39" stroke="black" stroke-width="2" /><polyline fill="none" points="120,39" stroke="black" stroke-width="2" /><polyline fill="none" points="102,39" stroke="black" stroke-width="2" /><polyline fill="none" points="160,38 159,38 158,39 159,39" stroke="black" stroke-width="2" /><polyline fill="none" points="89,39 83,38 64,46 57,46 66,65 72,71 74,70 64,61 63,57 65,54 63,57 57,48 79,39" stroke="black" stroke-width="2" /><polyline fill="none" points="122,37" stroke="black" stroke-width="2" /><polyline fill="none" points="130,39 129,42 131,46 137,38 144,40 137,37 131,44 129,42 136,34 140,33 151,41 148,44 148,47 151,41 147,36 140,33 135,34" stroke="black" stroke-width="2" /><polyline fill="none" points="102,32 104,34 104,35 105,36 105,37 106,38 105,37 106,36 105,36 104,35 104,34 106,32 104,34 103,33 103,32" stroke="black" stroke-width="2" /><polyline fill="none" points="101,37 99,39 95,39 94,40 91,39 91,40 100,39 101,35 98,32 96,32 93,36 89,33 85,33 84,34 84,36 86,33 88,33 93,36 92,37 97,32" stroke="black" stroke-width="2" /><polyline fill="none" points="121,31" stroke="black" stroke-width="2" /><polyline fill="none" points="187,32 186,33 187,32 192,33 195,30 197,31 196,32 198,33 196,35 191,36 189,38 192,36 198,37 199,38 198,42 190,42 197,42 198,44 199,37 201,35 200,33 198,33 196,30 194,30 191,33" stroke="black" stroke-width="2" /><polyline fill="none" points="182,28 181,28 180,29 179,28 178,28 181,30 181,32 180,33 181,34 179,36 179,37 175,40 175,41 179,37 179,36 181,34 180,33 181,32 181,29" stroke="black" stroke-width="2" /><polyline fill="none" points="82,26 82,29 84,31 83,32 85,30 89,30 92,32 92,29 92,30 91,31 90,31 89,30 84,30 82,28 82,27 83,26" stroke="black" stroke-width="2" /><polyline fill="none" points="148,24" stroke="black" stroke-width="2" /><polyline fill="none" points="148,22" stroke="black" stroke-width="2" /><polyline fill="none" points="194,44 183,52 183,35 165,42 166,24 162,37 128,37 116,22 100,64 77,49 91,66 56,80 115,69 97,50 119,28 122,43 139,30 161,36 155,45 175,43 182,58 163,71" stroke="black" stroke-width="2" /><polyline fill="none" points="141,20 140,21 139,21 139,22 138,23 139,24 139,26 142,26 143,27 145,25 145,23 146,22 145,21 143,21 142,20" stroke="black" stroke-width="2" /><polyline fill="none" points="152,16 151,17 149,17 148,18 147,18 146,19 147,19 149,17 150,17 151,18 151,17" stroke="black" stroke-width="2" /><polyline fill="none" points="85,26 86,24 89,28 98,26 109,8 126,12 131,17 143,9 149,14 143,9 132,17 126,12 109,8 97,26 86,24" stroke="black" stroke-width="2" /><polyline fill="none" points="153,18 159,14 170,13 175,10 183,21 182,23 180,22 184,25 184,33 184,25 182,23 183,20 175,10 177,7 171,12 159,14" stroke="black" stroke-width="2" /></svg>