<?xml version="1.0" encoding="utf-8" ?>
<svg baseProfile="full" height="219px" version="1.1" width="230px" xmlns="http://www.w3.org/2000/svg" xmlns:ev="http://www.w3.org/2001/xml-events" xmlns:xlink="http://www.w3.org/1999/xlink"><defs /><polyline fill="none" points="61,212 62,215 174,214" stroke="black" stroke-width="2" /><polyline fill="none" points="152,196 154,196" stroke="black" stroke-width="2" /><polyline fill="none" points="59,192 74,200 79,201 82,203 85,203 88,205 89,204 88,205 85,203 82,203" stroke="black" stroke-width="2" /><polyline fill="none" points="63,191 69,190 76,194 83,196 85,200 83,196 79,195 74,192 72,192 70,190" stroke="black" stroke-width="2" /><polyline fill="none" points="55,183 55,185 56,186 56,187 56,186 55,185" stroke="black" stroke-width="2" /><polyline fill="none" points="178,178 176,178 175,179 174,179 170,183 169,183 166,186 164,192 164,191 165,190 165,188 175,179" stroke="black" stroke-width="2" /><polyline fill="none" points="187,177 186,178 180,177 184,177 185,178 174,188 163,195 165,195 175,188" stroke="black" stroke-width="2" /><polyline fill="none" points="37,168 38,169 42,169 54,181 54,180 44,170 42,169 38,169" stroke="black" stroke-width="2" /><polyline fill="none" points="33,167 33,169 49,185 55,190 57,190 50,185" stroke="black" stroke-width="2" /><polyline fill="none" points="71,163 57,167 56,169 56,178 60,190 64,188 72,187 79,183 78,176 73,170" stroke="black" stroke-width="2" /><polyline fill="none" points="21,140 22,140 27,145 32,155 32,161 32,156 33,155 31,153 26,143 24,141" stroke="black" stroke-width="2" /><polyline fill="none" points="75,140 77,152 83,158 92,162 101,162 110,158 118,145 114,139 104,147 94,146 82,137 81,139" stroke="black" stroke-width="2" /><polyline fill="none" points="50,119 44,128 44,136 48,145 53,152 60,157 71,156 74,151 72,146 73,140 62,136 55,128 52,119" stroke="black" stroke-width="2" /><polyline fill="none" points="215,113 214,125 213,126 213,130 211,134 211,137 209,143 211,137 211,134 213,130 214,120 215,119" stroke="black" stroke-width="2" /><polyline fill="none" points="114,98 113,99 113,102 114,103 115,102 115,99" stroke="black" stroke-width="2" /><polyline fill="none" points="113,92 112,107 98,109 103,119 118,123 130,109 116,107 115,92 116,108 130,109 125,118 111,123 103,115 125,114 102,116 98,109 112,108" stroke="black" stroke-width="2" /><polyline fill="none" points="209,84 207,86 207,89 208,90 208,98 209,99 209,101 213,105 209,101 209,99 208,98 208,90 207,89 207,86 209,85" stroke="black" stroke-width="2" /><polyline fill="none" points="131,82 99,82 90,97 87,113 90,97 107,82 128,85 138,97 140,116 121,131 104,130 87,116 112,137 141,114" stroke="black" stroke-width="2" /><polyline fill="none" points="37,44 37,50 32,57 30,62 27,65 23,67 28,65 30,63 32,58 37,51" stroke="black" stroke-width="2" /><polyline fill="none" points="135,47 133,51 138,60 153,60 160,64 167,73 170,72 172,68 171,58 169,54 158,44 151,41 144,41" stroke="black" stroke-width="2" /><polyline fill="none" points="129,34 99,33 64,98 22,73 55,73 67,44 39,42 15,103 35,166 114,173 37,166 42,140 68,159 20,136 39,87 80,137 72,91 105,63 173,116 114,158 169,130" stroke="black" stroke-width="2" /><polyline fill="none" points="171,26 171,28 172,29 172,31 173,32 173,33 174,34 175,34 182,41 184,41 183,41 176,34 175,34 173,32 173,31 171,28" stroke="black" stroke-width="2" /><polyline fill="none" points="67,19 63,30 64,40 85,41 70,44 58,55 55,67 60,74 71,61 79,58 92,60 95,54 85,42 87,27" stroke="black" stroke-width="2" /><polyline fill="none" points="92,14 90,15 87,15 83,17 81,17 78,19 74,19 73,18 70,18 73,18 74,19 78,19 81,17 83,17 84,16" stroke="black" stroke-width="2" /><polyline fill="none" points="94,11 93,12" stroke="black" stroke-width="2" /><polyline fill="none" points="129,9 128,9 127,10 128,10" stroke="black" stroke-width="2" /><polyline fill="none" points="139,8 165,22 98,9 88,42 146,28 214,111 196,124 170,75 187,135 176,118 152,151 185,153 114,161 109,191 81,177 93,206 158,198 161,160 188,175 207,148 208,67" stroke="black" stroke-width="2" /><polyline fill="none" points="97,7 54,24 21,64 12,112 31,166 13,121 19,69 51,27 63,22 50,37 64,18" stroke="black" stroke-width="2" /><polyline fill="none" points="101,6 101,7 102,6 107,6 108,5 120,5 121,6 133,7 121,6 120,5" stroke="black" stroke-width="2" /></svg>