<?xml version="1.0" encoding="utf-8" ?>
<svg baseProfile="full" height="536px" version="1.1" width="536px" xmlns="http://www.w3.org/2000/svg" xmlns:ev="http://www.w3.org/2001/xml-events" xmlns:xlink="http://www.w3.org/1999/xlink"><defs /><polyline fill="none" points="5,527 518,523" stroke="black" stroke-width="2" /><polyline fill="none" points="264,117 245,221 214,164 218,202 156,231 215,250 109,278 216,297 157,328 197,323 223,384 245,325 274,429 272,346 295,325 325,382 320,344 382,317 322,297 429,271 323,249 380,218 342,224 314,163 293,221" stroke="black" stroke-width="2" /><polyline fill="none" points="519,34 523,508" stroke="black" stroke-width="2" /><polyline fill="none" points="7,34 11,508" stroke="black" stroke-width="2" /><polyline fill="none" points="8,21 521,20" stroke="black" stroke-width="2" /></svg>