<?xml version="1.0" encoding="utf-8" ?>
<svg baseProfile="full" height="584px" version="1.1" width="736px" xmlns="http://www.w3.org/2000/svg" xmlns:ev="http://www.w3.org/2001/xml-events" xmlns:xlink="http://www.w3.org/1999/xlink"><defs /><polyline fill="none" points="553,517 550,519 550,520 549,521 549,523 550,524 550,526 552,526 553,527 555,527 556,526 557,526 559,524 559,520 558,519 558,518 557,518 556,517" stroke="black" stroke-width="2" /><polyline fill="none" points="541,518 540,518 539,517 536,517 533,519 533,520 532,521 532,523 533,524 533,526 534,527 535,526 536,527 538,527 539,526 540,526 542,524 542,519" stroke="black" stroke-width="2" /><polyline fill="none" points="101,506 99,508 99,519 105,522 107,524 108,523 109,524 109,521 108,520 108,507 104,505 103,506" stroke="black" stroke-width="2" /><polyline fill="none" points="85,505 84,506 84,509 90,512 88,510 84,508 84,507 86,505 89,505 92,508 92,513 92,508 90,505" stroke="black" stroke-width="2" /><polyline fill="none" points="280,498 277,506 279,522 289,528 301,527 303,523 302,499 296,499 296,516 293,520 289,521 284,516 285,500" stroke="black" stroke-width="2" /><polyline fill="none" points="410,497 409,499 409,524 410,527 415,527 416,526 416,510 420,505 427,504 427,500 424,498 416,499 414,497" stroke="black" stroke-width="2" /><polyline fill="none" points="328,499 325,498 317,499 315,497 312,497 310,499 311,527 317,526 317,510 321,505 327,505 329,503" stroke="black" stroke-width="2" /><polyline fill="none" points="240,498 235,499 227,515 219,498 215,497 213,499 222,522 222,527 217,536 218,539 223,539 241,503" stroke="black" stroke-width="2" /><polyline fill="none" points="508,497 502,502 499,512 502,521 509,525 523,524 525,522 524,516 510,518 507,515 509,513 523,513 525,510 525,502 520,497" stroke="black" stroke-width="2" /><polyline fill="none" points="386,497 380,501 377,507 377,517 379,521 387,525 400,524 403,521 402,517 388,518 384,514 400,513 402,510 401,500 394,496" stroke="black" stroke-width="2" /><polyline fill="none" points="359,496 352,501 352,509 365,518 363,520 353,518 351,519 351,523 355,526 364,527 370,524 372,516 368,510 361,508 359,505 361,503 369,504 371,501 368,497" stroke="black" stroke-width="2" /><polyline fill="none" points="257,496 252,498 247,503 245,508 245,517 247,522 252,526 262,527 268,524 271,520 272,505 270,500 266,497" stroke="black" stroke-width="2" /><polyline fill="none" points="159,495 153,494 143,499 143,504 148,504 153,501 158,504 156,508 150,508 140,514 140,522 143,525 154,526 163,525 165,523 165,501" stroke="black" stroke-width="2" /><polyline fill="none" points="177,488 175,495 170,497 170,502 175,505 176,524 180,527 187,527 191,523 189,520 182,519 182,505 184,503 188,503 189,498 182,494 182,488" stroke="black" stroke-width="2" /><polyline fill="none" points="552,484 550,487 550,508 552,513 556,513 557,512 557,486 555,484" stroke="black" stroke-width="2" /><polyline fill="none" points="535,484 533,487 533,509 535,513 538,513 540,511 540,487 538,484" stroke="black" stroke-width="2" /><polyline fill="none" points="462,484 461,485 461,486 460,487 460,489 462,491 466,491 467,490 467,485 466,484" stroke="black" stroke-width="2" /><polyline fill="none" points="274,412 449,498 443,515 454,501 443,527 430,501 441,527 458,502 461,525 470,508 615,583 479,525 491,497 482,520 620,583 481,514 492,497 471,509" stroke="black" stroke-width="2" /><polyline fill="none" points="375,407 374,418 382,440 395,454 409,460 430,463 446,459 464,441 445,459 430,463 409,460 383,441 378,433" stroke="black" stroke-width="2" /><polyline fill="none" points="341,376 295,396 282,399 255,398 282,399 295,396" stroke="black" stroke-width="2" /><polyline fill="none" points="472,361 735,462" stroke="black" stroke-width="2" /><polyline fill="none" points="473,358 735,459" stroke="black" stroke-width="2" /><polyline fill="none" points="242,377 244,395 261,403 353,381 282,403 247,397 249,365 297,332 364,383 454,384 364,383 297,332" stroke="black" stroke-width="2" /><polyline fill="none" points="447,500 157,357 238,394 158,355 258,278 0,452 51,527 58,494 189,583 76,523 65,485 193,583 13,460 157,357" stroke="black" stroke-width="2" /><polyline fill="none" points="488,276" stroke="black" stroke-width="2" /><polyline fill="none" points="486,275 484,278 486,322 480,348 474,355 479,351 486,322 484,280" stroke="black" stroke-width="2" /><polyline fill="none" points="289,219 0,408 223,262 281,284 224,262" stroke="black" stroke-width="2" /><polyline fill="none" points="296,218 297,222 288,243 287,259 282,273 283,276 282,273 287,259 288,244 297,222" stroke="black" stroke-width="2" /><polyline fill="none" points="265,214 0,379" stroke="black" stroke-width="2" /><polyline fill="none" points="364,203 428,201 433,236 400,239 431,238 452,257 476,299 476,349 476,298 452,256 432,239 428,200" stroke="black" stroke-width="2" /><polyline fill="none" points="408,148 406,148 406,153 405,154 405,158 407,158 407,157 408,156" stroke="black" stroke-width="2" /><polyline fill="none" points="308,173 319,150 320,158 332,147 354,178 379,184 375,192 381,186 356,179 334,148 320,148 308,173 312,198 335,204 313,198 314,184 338,205 418,191 343,203" stroke="black" stroke-width="2" /><polyline fill="none" points="405,142 405,144 406,145 407,144 409,144 408,143 409,142" stroke="black" stroke-width="2" /><polyline fill="none" points="345,141 346,145 350,148 351,151 346,144 347,142 354,151 351,154 346,148 352,155 350,159 351,162 350,159 353,153 355,155 355,160 356,159 353,147" stroke="black" stroke-width="2" /><polyline fill="none" points="431,140 431,143 420,151 422,167 420,152 432,141 429,140 417,149 419,170 426,168 431,161 420,170 417,150" stroke="black" stroke-width="2" /><polyline fill="none" points="271,139 271,142 279,156 284,161 290,164 288,162 286,162 279,155 272,144" stroke="black" stroke-width="2" /><polyline fill="none" points="405,137 405,139 408,139 408,137" stroke="black" stroke-width="2" /><polyline fill="none" points="340,136 346,163 356,175 373,181 397,178 404,161 396,177 372,178 359,173 352,166 353,160 354,169 364,176 393,177 373,181 357,175 344,158" stroke="black" stroke-width="2" /><polyline fill="none" points="384,135 390,136 384,135 379,137 375,143 375,150 379,156 387,158 396,152 397,146 393,139 396,143 396,151 387,158 380,156 375,150 375,143" stroke="black" stroke-width="2" /><polyline fill="none" points="389,134 390,134" stroke="black" stroke-width="2" /><polyline fill="none" points="378,132 371,144 373,155 378,160 385,162 394,160 399,154 399,146 398,155 388,162 379,160 373,154 371,147 373,139 379,132 387,133" stroke="black" stroke-width="2" /><polyline fill="none" points="432,125 430,127 429,127 425,131 422,132 423,132 424,131 426,131 428,129 429,129 430,130 430,132 431,133 431,134 432,133 433,133 433,129 431,126" stroke="black" stroke-width="2" /><polyline fill="none" points="296,125 296,128 298,133 298,139 299,140 298,141 297,146 299,149 300,148 301,149 302,147 302,136 301,135 301,132 300,131 300,128 298,125" stroke="black" stroke-width="2" /><polyline fill="none" points="432,122 431,122 429,124 428,124 424,128 423,128 421,130 422,130 424,128 425,128 429,124 430,124 431,123 432,123" stroke="black" stroke-width="2" /><polyline fill="none" points="347,126 374,125 420,133 375,122 349,123 383,123 416,130 416,134 374,125" stroke="black" stroke-width="2" /><polyline fill="none" points="281,122 282,123 282,126 284,128 286,133 290,137 291,137 295,142 292,138 293,136 291,133 291,129 292,128 291,124 288,122" stroke="black" stroke-width="2" /><polyline fill="none" points="264,122 263,139 273,160 287,170 307,170 315,156 309,143 306,166 290,168 273,154 266,124 268,145 283,165 304,168 305,153 312,152 306,170 287,170 267,150 262,126 269,121" stroke="black" stroke-width="2" /><polyline fill="none" points="252,121 251,122 251,128 254,128 254,125 253,124 253,121" stroke="black" stroke-width="2" /><polyline fill="none" points="291,118 301,122 311,130 321,132 333,144 323,133 312,130 305,124" stroke="black" stroke-width="2" /><polyline fill="none" points="258,118 259,122 265,117 292,114 314,128 335,130 339,126 334,130 318,129 298,115 294,116 293,112 275,113 292,112 286,117 268,116 261,121" stroke="black" stroke-width="2" /><polyline fill="none" points="288,105 275,110 272,113 260,116 253,116 262,116 273,113 274,111 285,106 288,107 281,111 284,111 288,108" stroke="black" stroke-width="2" /><polyline fill="none" points="443,97 443,98 447,97 453,102 459,104 460,107 457,109 458,114 460,112 459,113 457,110 461,106 458,103 453,102 449,98 450,97 449,98" stroke="black" stroke-width="2" /><polyline fill="none" points="445,94 448,94 449,95 452,95 449,95 448,94" stroke="black" stroke-width="2" /><polyline fill="none" points="443,94 438,97 439,100 435,106 432,104 436,107 432,114 439,121 439,118 434,114 435,106 438,103 445,105 446,111 441,115 443,118 448,114 443,118 441,116 449,110 446,110 444,104 450,102 439,100 438,97" stroke="black" stroke-width="2" /><polyline fill="none" points="257,91 260,91 261,90 263,92 264,92 265,91 267,91 265,91 264,92 263,91 262,91 261,90 260,90 259,91" stroke="black" stroke-width="2" /><polyline fill="none" points="433,75 433,79 436,83 437,87 440,88 442,90 441,88 439,88 436,85 437,83 436,83 435,81 437,80 435,76 436,77 436,80 435,81 433,78" stroke="black" stroke-width="2" /><polyline fill="none" points="319,68 318,68 315,71 314,71 315,72 314,75 309,80 309,83 308,84 309,86 308,85 309,84 309,81 314,76 314,74 316,73 315,72" stroke="black" stroke-width="2" /><polyline fill="none" points="421,67 420,69 424,73 423,74 421,73 421,74 424,73 429,77 429,79 431,81 429,77 421,68 422,67 431,76 430,74 434,73 430,74 423,67" stroke="black" stroke-width="2" /><polyline fill="none" points="321,68 323,69 327,67 329,69 327,71 329,69 330,70 337,70 339,71 337,70 331,70 327,67 325,68 323,68 322,69" stroke="black" stroke-width="2" /><polyline fill="none" points="346,45 345,45 346,46 346,47 345,48 343,48 342,49 340,49 339,48 340,49 343,49 344,48 345,48 346,47" stroke="black" stroke-width="2" /><polyline fill="none" points="394,43 388,41 387,42 382,42 380,44 378,44 375,46 373,44 375,46 379,44 386,45 387,48 387,46 389,45 382,45 381,44 383,42 386,43 387,42" stroke="black" stroke-width="2" /><polyline fill="none" points="234,100 238,186 295,216 316,202 278,217 237,184 233,102 257,84 295,98 344,42 411,41 534,212 527,256 487,278 529,254 534,211 419,45 362,36 293,99" stroke="black" stroke-width="2" /></svg>