<?xml version="1.0" encoding="utf-8" ?>
<svg baseProfile="full" height="775px" version="1.1" width="720px" xmlns="http://www.w3.org/2000/svg" xmlns:ev="http://www.w3.org/2001/xml-events" xmlns:xlink="http://www.w3.org/1999/xlink"><defs /><polyline fill="none" points="683,734" stroke="black" stroke-width="2" /><polyline fill="none" points="277,734 276,735 276,740 277,741 281,741 282,740 282,735 281,734" stroke="black" stroke-width="2" /><polyline fill="none" points="162,733 161,734 161,739 162,740 166,740 167,739 167,738 168,737 168,736 167,735 167,734 166,733" stroke="black" stroke-width="2" /><polyline fill="none" points="625,732" stroke="black" stroke-width="2" /><polyline fill="none" points="451,732 451,733 450,734 450,739 451,740 455,740 456,739 456,737 457,736 457,735 456,734 456,733 455,732" stroke="black" stroke-width="2" /><polyline fill="none" points="569,731 568,732 568,733 567,734 567,738 568,739 572,739 573,738 573,733 572,732 570,732" stroke="black" stroke-width="2" /><polyline fill="none" points="572,677" stroke="black" stroke-width="2" /><polyline fill="none" points="513,677" stroke="black" stroke-width="2" /><polyline fill="none" points="631,614" stroke="black" stroke-width="2" /><polyline fill="none" points="567,614" stroke="black" stroke-width="2" /><polyline fill="none" points="571,609" stroke="black" stroke-width="2" /><polyline fill="none" points="47,609 45,609 44,608 43,609 42,609 41,610 41,614 42,615 46,615 47,614 47,613 48,612 47,611" stroke="black" stroke-width="2" /><polyline fill="none" points="685,607 684,608 684,612 685,613 690,613 691,612 691,608 690,608 689,607" stroke="black" stroke-width="2" /><polyline fill="none" points="576,606 558,636 567,670 625,730 683,732 681,668 618,605 592,600" stroke="black" stroke-width="2" /><polyline fill="none" points="687,593 686,594 684,594 684,596 685,597 687,597 688,596 687,595 688,594" stroke="black" stroke-width="2" /><polyline fill="none" points="39,484 38,485 38,487 39,488 39,489 40,490 43,490 44,489 44,485 43,484" stroke="black" stroke-width="2" /><polyline fill="none" points="708,482 707,483 708,484 707,485 708,486 709,485 710,486 711,485 711,483 710,483 709,482" stroke="black" stroke-width="2" /><polyline fill="none" points="685,481 684,482 684,483 683,484 683,486 684,487 684,488 685,489 688,489 689,488 689,486 690,485 690,482 689,481" stroke="black" stroke-width="2" /><polyline fill="none" points="685,424" stroke="black" stroke-width="2" /><polyline fill="none" points="33,294 33,299 34,300 35,300 36,301 37,301 38,300 39,300 39,296 37,294" stroke="black" stroke-width="2" /><polyline fill="none" points="685,291 684,292 684,297 685,298 688,298 690,296 690,295 689,294 690,293 688,291 687,292 686,291" stroke="black" stroke-width="2" /><polyline fill="none" points="32,167 31,168 31,172 32,173 36,173 37,172 37,170 38,169 37,168 36,168 35,167" stroke="black" stroke-width="2" /><polyline fill="none" points="690,163 688,163 687,164 685,164 685,168 686,169 690,169 691,168 691,164" stroke="black" stroke-width="2" /><polyline fill="none" points="7,68 7,71 10,71 10,68" stroke="black" stroke-width="2" /><polyline fill="none" points="267,45 266,46 266,50 267,51 270,51 272,49 272,46 271,45" stroke="black" stroke-width="2" /><polyline fill="none" points="151,43 150,44 150,48 151,49 154,49 155,48 155,44 154,43" stroke="black" stroke-width="2" /><polyline fill="none" points="445,41 445,43 444,44 445,45 445,47 449,47 450,46 450,45 451,44 450,43 450,41" stroke="black" stroke-width="2" /><polyline fill="none" points="567,37 566,38 566,42 567,43 567,44 568,43 569,43 570,44 571,43 571,42 572,41 572,38 571,37" stroke="black" stroke-width="2" /><polyline fill="none" points="691,34 250,123 29,42 112,516 45,740 479,663 690,736 634,614 687,738 486,663 330,730 552,592 672,340 680,579 610,492 455,667 531,730 680,580 617,258" stroke="black" stroke-width="2" /></svg>