<?xml version="1.0" encoding="utf-8" ?>
<svg baseProfile="full" height="416px" version="1.1" width="480px" xmlns="http://www.w3.org/2000/svg" xmlns:ev="http://www.w3.org/2001/xml-events" xmlns:xlink="http://www.w3.org/1999/xlink"><defs /><polyline fill="none" points="180,8 123,39 124,106 180,76 193,123 52,167 53,228 112,261 115,201 153,209 125,353 233,354 182,316 221,284 322,383 376,352 372,287 319,314 307,267 439,227 439,168 387,131 383,196 340,181 373,40 318,10 263,39 314,74 273,104" stroke="black" stroke-width="2" /></svg>